<?xml version="1.0" encoding="UTF-8"?>
<!DOCTYPE svg PUBLIC "-//W3C//DTD SVG 1.1//EN" "http://www.w3.org/Graphics/SVG/1.1/DTD/svg11.dtd">
<!-- Creator: CorelDRAW -->
<svg xmlns="http://www.w3.org/2000/svg" xml:space="preserve" width="2048px" height="2048px" style="shape-rendering:geometricPrecision; text-rendering:geometricPrecision; image-rendering:optimizeQuality; fill-rule:evenodd; clip-rule:evenodd"
viewBox="0 0 2048 2048"
 xmlns:xlink="http://www.w3.org/1999/xlink">
 <defs>
  <style type="text/css">
   <![CDATA[
    .fil3 {fill:none}
    .fil4 {fill:#039BE5}
    .fil0 {fill:#29B6F6}
    .fil5 {fill:#B3E5FC}
    .fil1 {fill:#0288D1;fill-rule:nonzero}
    .fil2 {fill:#29B6F6;fill-rule:nonzero}
   ]]>
  </style>
 </defs>
 <g id="Layer_x0020_1">
  <metadata id="CorelCorpID_0Corel-Layer"/>
  <path class="fil0" d="M1024 255.242c102.744,0 195.767,41.6492 263.101,108.985 67.3371,67.3359 108.986,160.358 108.986,263.103 0,102.743 -41.6492,195.767 -108.986,263.101 -67.3347,67.3371 -160.357,108.986 -263.101,108.986 -102.745,0 -195.767,-41.6492 -263.103,-108.986 -67.3359,-67.3347 -108.985,-160.358 -108.985,-263.101 0,-102.744 41.6492,-195.767 108.985,-263.103 67.3359,-67.3359 160.357,-108.985 263.103,-108.985z"/>
  <path class="fil1" d="M1168.74 1000.03l-59.9646 -0.0377953 -169.299 -0.103937 -59.1532 -0.0354331 0 0.140551c-119.71,0 -230.11,43.1457 -309.896,113.815 -77.0008,68.2004 -125.374,162.23 -125.374,267.58l0 315.274c347.654,96.4914 817.869,153.116 1157.9,3.98859l0 -319.263c0,-230.537 -218.279,-381.216 -434.209,-381.216l0 -0.141732z"/>
  <path class="fil2" d="M1108.77 999.995c2.27362,1.45158 4.40552,3.09331 6.36733,4.90158 8.75198,8.06694 14.1851,19.3347 14.1851,31.8992l-3.01536 12.3827 -47.302 93.5292 0.127559 0.529134 24.9662 329.38 -0.0519685 0.00472441c0.354331,3.94961 -0.101575,7.56497 -1.09843,10.9205l0 0.106299c-0.89882,3.01181 -2.13662,5.51693 -3.49725,7.69607l-51.3615 69.6638 0 0.108662c-2.95748,3.96142 -6.75945,7.09489 -11.3114,9.31772l0.0188977 0.0425197c-4.29449,2.08937 -8.91379,3.16536 -13.7374,3.16536l-0.080315 0c-4.80355,0 -9.74292,-1.25787 -14.1803,-3.53622l-0.108662 0c-4.41733,-2.27953 -8.38465,-5.68347 -11.3374,-10.0488l-0.0236221 0.0165354 -46.526 -67.9099 -0.108662 -0.216142c-1.96299,-2.93032 -3.33425,-5.95394 -4.17874,-9.09331l0.0720473 -0.0188977c-0.799607,-2.97638 -1.17284,-5.66221 -1.17284,-8.12599l0.108662 -1.93583 23.2677 -329.43c1.29685,-6.61418 -40.4776,-81.5599 -46.8922,-93.8446l-3.23268 -12.7039c0,-12.4677 5.4189,-23.7095 14.1638,-31.7977 2.04449,-1.89095 4.26851,-3.60355 6.64016,-5.10709l169.299 0.103937z"/>
  <rect class="fil3" width="2048" height="2048"/>
  <rect class="fil3" x="255.999" y="255.999" width="1536" height="1536"/>
  <g id="_348181136">
   <path id="_348181352" class="fil4" d="M1041.38 450.063l4.363 -8.39646 0.112205 0c2.60197,-4.98544 6.04843,-9.25749 10.0807,-12.6284 4.17874,-3.49252 8.98229,-6.15591 14.1508,-7.78819 5.27481,-1.66536 10.7303,-2.2441 16.0736,-1.78228l-0.0011811 0.00944883c5.20748,0.462992 10.4291,1.98662 15.3721,4.52126l0.223229 0.113386 40.6229 21.1807 0.022441 -0.0425197c10.2591,5.32914 17.348,14.2323 20.5512,24.3248l-0.102756 0.034252c3.18544,10.0583 2.55,21.3307 -2.61969,31.4079l0 0.22441 -5.12835 9.83741c2.61496,3.08622 5.09764,6.23623 7.44331,9.44646 2.31851,3.17244 4.52717,6.41812 6.62599,9.73702l11.1378 -2.16851c11.2122,-2.16969 22.2709,0.409843 31.0618,6.34371 8.79213,5.93504 15.3425,15.2646 17.5382,26.5925l8.76379 45.1217 0 0.113386c2.13189,11.1709 -0.441733,22.174 -6.35079,30.9296 -5.92914,8.78268 -15.2067,15.3272 -26.4603,17.537l-0.112205 0 -11.7059 2.27953c-0.733465,3.75945 -1.58977,7.49292 -2.56536,11.1886 -0.988583,3.74646 -2.10118,7.46103 -3.33189,11.1319l9.16536 7.82481c4.10079,3.50788 7.45394,7.82245 9.92717,12.6626 2.51575,4.92402 4.0689,10.1469 4.52717,15.3732l0 0.896457c0.11811,2.09528 0.0720473,4.30276 -0.155906,6.59646l-0.00944883 -0.00236221c-0.253937,2.5441 -0.641339,4.79646 -1.15748,6.70867 -0.772442,2.88425 -1.9063,5.78741 -3.40512,8.6315 -1.36654,2.59843 -3.09567,5.14252 -5.19331,7.57914l0.0177165 0.0141732 -29.8429 34.9607c-7.51064,8.72717 -17.7709,13.6134 -28.291,14.439l-0.112205 0c-10.5047,0.820867 -21.3567,-2.40118 -30.065,-9.87993l-8.57363 -7.31103c-3.44292,1.84016 -6.9567,3.57048 -10.5354,5.18859 -3.67914,1.66181 -7.42442,3.19843 -11.2335,4.60512l-0.39567 11.0539 -0.0011811 0 0 0.0354331c-0.420473,11.4413 -5.40473,21.6354 -13.1457,28.8662 -7.70079,7.1941 -18.163,11.4496 -29.589,11.0622l0 -0.0011811 -0.034252 0 -45.0225 -1.55906 0 0.0814961 -0.0011811 0 -0.89882 -0.113386c-11.5559,-0.402756 -21.7902,-5.4 -29.0173,-13.1516 -7.01693,-7.5319 -11.2264,-17.6634 -11.0776,-28.7114l-0.0921261 0 0 -0.0011811 0.112205 -0.89882 0.330709 -9.5882c-3.87992,-1.62165 -7.65237,-3.36733 -11.3126,-5.23229 -3.86103,-1.9689 -7.66536,-4.09843 -11.4047,-6.38859l-7.32875 5.42599 -0.00236221 -0.00354331 -0.022441 0.022441c-9.2256,6.83386 -20.2772,9.30119 -30.691,7.76103 -10.4681,-1.54725 -20.3752,-7.12323 -27.2469,-16.3559l0.00236221 -0.00236221 -0.022441 -0.022441 -27.3697 -36.9685 -0.112205 -0.112205c-3.24449,-4.41969 -5.55945,-9.35788 -6.84922,-14.5276l0 -0.111024c-1.30866,-5.25827 -1.61102,-10.7138 -0.797245,-16.0831l0.112205 -0.112205c0.849213,-5.43308 2.70709,-10.5236 5.40591,-15.039 2.78268,-4.65 6.3815,-8.70237 10.637,-11.9138l0.225591 -0.113386 6.36851 -4.70433c-1.20945,-4.31929 -2.2441,-8.65985 -3.1004,-13.0158 -0.857481,-4.34646 -1.5437,-8.75906 -2.05276,-13.2307l-7.43859 -1.9937c-11.0374,-2.96575 -19.8579,-10.1386 -25.174,-19.3288 -5.33386,-9.21851 -7.16457,-20.4437 -4.20945,-31.4799l11.8937 -44.4095c2.95512,-11.0043 10.1847,-19.8225 19.4516,-25.1693 9.21379,-5.31615 20.4142,-7.14567 31.3855,-4.20827l7.48819 2.00551c2.52756,-3.40276 5.17914,-6.70867 7.94764,-9.91064 2.73544,-3.16418 5.58189,-6.2256 8.53701,-9.18072l-3.19725 -7.15985 -0.112205 -0.225591c-2.15079,-4.94292 -3.32126,-10.2839 -3.45473,-15.7039 -0.131102,-5.39764 0.741733,-10.7539 2.6752,-15.7665l-0.0200788 -0.00944883c1.95709,-5.10237 4.89922,-9.72639 8.6067,-13.65 3.73819,-3.95551 8.2004,-7.16812 13.1658,-9.41221l0.113386 0 41.9138 -18.6425 -0.0200788 -0.0413386 0.0448819 -0.0200788 0.226772 -0.113386c10.4327,-4.59922 21.7181,-4.57205 31.5473,-0.80315 9.8941,3.7937 18.3461,11.3787 23.015,21.8563l0.22441 0.452363 0.0188977 0.0437008 -0.0212599 0.00826772 3.51733 7.90276c4.32756,-0.13937 8.65631,-0.112205 12.9791,0.0767717 4.17874,0.183071 8.33386,0.510237 12.4618,0.980316z"/>
   <path id="_348181208" class="fil5" d="M984.933 473.628c-0.748819,-1.3748 -2.02087,-3.18425 -3.4252,-3.72166 -0.56693,-0.217323 -1.81299,-0.572835 -2.5937,-0.543308l-39.8103 17.7083c-0.475985,0.288189 -0.911812,0.647245 -1.29213,1.05236 -0.401575,0.424016 -0.740552,0.903544 -0.99567,1.42559l-0.187795 0.486615c-0.239764,0.620079 -0.308268,1.33937 -0.292914,1.99725 0.00944883,0.386221 0.0283465,0.937796 0.0968505,1.37717l0.0956694 0.194882 11.9906 26.8524 -15.3602 15.3602c-2.10945,2.10827 -4.13977,4.29567 -6.09095,6.55158 -1.97244,2.28189 -3.86103,4.63465 -5.66103,7.05709l-12.7913 17.2181 -27.4264 -7.34764c-1.44095,-0.386221 -2.89488,-0.11811 -4.1752,0.620079 -1.30748,0.754725 -2.31732,1.90158 -2.71181,3.37441l-10.6559 39.7902c-0.392126,1.46221 -0.151181,2.92559 0.602363,4.22953 0.760631,1.31339 1.93583,2.24173 3.40276,2.63386l27.4229 7.35001 2.43543 21.3532c0.356693,3.12756 0.838583,6.24095 1.44685,9.32835 0.612993,3.11221 1.34882,6.19961 2.20394,9.25394l5.8689 20.9646 -23.5843 17.4248c-0.402756,0.386221 -0.747638,0.843308 -1.0311,1.31693 -0.389764,0.65315 -0.627166,1.39488 -0.744095,2.1437l-0.122835 0.785434c0.0141732,0.413386 0.080315,0.829134 0.179528,1.22599l0.277559 1.11496 24.8292 33.5374c1.00276,1.19646 2.51221,2.52992 4.06536,2.75906 1.42323,0.211417 2.78977,-0.115748 3.94016,-0.979135l0.180709 -0.133465 23.6776 -17.5299 18.1559 11.1165c2.6315,1.61102 5.32441,3.12047 8.07284,4.52126 2.60906,1.3311 5.27126,2.55827 7.97363,3.6874l16.6394 6.95434 2.86772 0 -0.0153543 1.19291 0.636615 0.266929 -1.05118 30.4299 0 0.105118c-0.0200788,1.42913 0.467717,2.7189 1.44213,3.76536 0.946064,0.858662 3.87874,1.51299 5.74961,1.82953l39.3048 1.36063c1.48583,0.0366142 2.90197,-0.400394 3.99922,-1.42559 1.05473,-0.986221 1.73032,-2.26654 1.77284,-3.72402l0.00708662 -0.231496 1.11024 -31.0512 19.8496 -7.33465c2.70591,-1.00039 5.37756,-2.09528 8.00552,-3.28229 2.56063,-1.15748 5.08229,-2.39764 7.55906,-3.72284l18.9874 -10.1504 24.0614 20.5217c1.16221,0.989765 4.02048,1.24606 5.78268,1.29449 0.740552,-0.411024 1.65709,-1.32638 2.10827,-1.85551l5.87835 -6.88465 -0.131102 -0.10748 21.0709 -24.4559c0.230315,-0.266929 0.472441,-0.578741 0.636615,-0.894095 0.187795,-0.35315 0.356693,-0.73819 0.47126,-1.12441 0.0661418,-0.334252 0.102756,-0.709843 0.135827,-1.04291l0.00236221 -0.022441c0.0212599,-0.561024 0.011811,-1.14567 0.00236221,-1.72323 -0.19252,-0.429922 -0.418111,-0.86693 -0.611811,-1.2437 -0.317717,-0.62126 -0.745276,-1.24252 -1.28032,-1.69843l-24.4205 -20.85 6.77599 -20.2075c0.884646,-2.6374 1.68307,-5.30315 2.39173,-7.99253 0.700394,-2.6504 1.31339,-5.32323 1.83898,-8.01497l4.07363 -20.8748 31.8792 -6.20788c1.30394,-0.36378 2.39055,-1.14449 3.16299,-2.28898 0.833859,-1.23543 1.12441,-2.66811 0.84567,-4.13268l-0.559843 -2.9315 0 -0.0496063 -7.27323 -37.4457c-0.294095,-1.52126 -1.09724,-2.80984 -2.38583,-3.68032 -1.23425,-0.833859 -2.66811,-1.14921 -4.13386,-0.863386l-31.1634 6.06969 -11.5335 -18.241c-1.50236,-2.37638 -3.08504,-4.70079 -4.74331,-6.96969 -1.67244,-2.29134 -3.43229,-4.5189 -5.26536,-6.68386l-13.715 -16.187 10.8272 -20.7673 0 -0.0921261 3.48071 -6.78544c0.676772,-1.31929 0.786615,-2.78622 0.340158,-4.2l-0.307087 -0.967324c-0.432284,-0.801969 -1.05,-1.46457 -1.81063,-1.98071l-37.0548 -19.3193c-0.640158,-0.325985 -1.50118,-0.679134 -2.22874,-0.742914 -0.712205,-0.0637796 -1.43268,0.0401575 -2.11181,0.255118 -0.707481,0.223229 -1.37008,0.622441 -1.93819,1.09606 -0.532678,0.445276 -0.970867,1.0878 -1.28976,1.69843l-8.85355 16.963 -0.0625985 0 -5.08111 9.77835 -21.574 -2.45788c-2.97992,-0.338977 -5.97284,-0.575197 -8.9693,-0.7063 -3.07914,-0.134646 -6.163,-0.153543 -9.24331,-0.0543308l-21.2162 0.677953 -11.6386 -26.1473z"/>
  </g>
 </g>
</svg>
