<svg width="26" height="30" viewBox="0 0 26 30" fill="none" xmlns="http://www.w3.org/2000/svg">
<path d="M15.8969 7.31257C16.0058 7.46155 16.0975 7.61513 16.0095 7.80955C15.9178 8.01145 15.7418 8.02641 15.5599 8.02583C14.8926 8.02468 14.2257 8.02526 13.5583 8.02526H13.3507V8.96803H12.6645C12.6613 8.91223 12.6549 8.85759 12.6549 8.80294C12.6543 7.81818 12.6565 6.83284 12.6527 5.84808C12.6522 5.61742 12.7214 5.446 12.9301 5.35742H15.8116C16.097 5.58348 16.1174 5.74857 15.8969 6.06033C15.7525 6.26511 15.6072 6.46931 15.4521 6.68789C15.6007 6.89726 15.7461 7.10722 15.8969 7.31257Z" fill="#3D5EE1"/>
<path d="M16.207 14.9669C16.207 14.8766 16.156 14.7599 16.0921 14.7006C15.0766 13.7613 14.0556 12.8289 13.0352 11.8959C13.0057 11.8689 12.9725 11.847 12.9397 11.8223C12.8952 11.8614 12.8587 11.8919 12.8233 11.9241C11.8147 12.8433 10.8077 13.7642 9.79646 14.6799C9.69828 14.7685 9.65643 14.8548 9.65643 14.9957C9.66073 18.1421 9.65965 21.288 9.65965 24.4344V24.638H11.1607V20.975C11.1613 20.5643 11.2519 20.4689 11.6409 20.4689H14.259C14.6742 20.4689 14.7568 20.5563 14.7568 20.9929V24.6443H16.2037C16.207 24.5724 16.2112 24.5172 16.2112 24.462C16.2118 21.2966 16.2129 18.1318 16.207 14.9669ZM14.399 18.3987C13.9194 18.4044 13.4403 18.4004 12.9607 18.4004C12.5046 18.4004 12.0486 18.401 11.5921 18.4004C11.5341 18.4004 11.4746 18.4015 11.4172 18.3918C11.2428 18.3619 11.128 18.2094 11.1339 18.0219C11.1393 17.843 11.2557 17.6981 11.4263 17.6814C11.5712 17.6676 11.7182 17.6727 11.8641 17.6727C12.6946 17.6722 13.525 17.6739 14.355 17.671C14.5342 17.6704 14.6839 17.7188 14.7509 17.9115C14.8389 18.1617 14.6721 18.3952 14.399 18.3987Z" fill="#3D5EE1"/>
<path d="M21.3561 17.5456C21.3556 17.1446 21.1507 16.9312 20.7762 16.9289C20.3078 16.9266 19.8395 16.9284 19.3711 16.9284H16.9124V24.6356H21.3502C21.3529 24.5873 21.3567 24.5505 21.3567 24.5143C21.3572 22.1915 21.3583 19.8683 21.3561 17.5456ZM18.6533 22.6207C18.6388 22.8375 18.5026 22.9842 18.3228 22.9905C18.1447 22.9963 17.9891 22.8565 17.9773 22.6425C17.9629 22.3676 17.9623 22.0909 17.9795 21.8165C17.9929 21.5939 18.1388 21.4702 18.3282 21.4783C18.5058 21.4863 18.6302 21.6209 18.6539 21.8309C18.6549 21.8435 18.6555 21.8562 18.6555 21.8683C18.656 21.9937 18.6555 22.1191 18.6555 22.2445C18.6555 22.2445 18.6549 22.2445 18.6544 22.2445C18.6544 22.3699 18.6614 22.4958 18.6533 22.6207ZM18.6549 19.5231C18.6437 19.7561 18.5149 19.9045 18.3255 19.9114C18.1329 19.9189 17.9865 19.7831 17.9741 19.5513C17.9602 19.289 17.9612 19.0244 17.9752 18.7621C17.987 18.5366 18.1437 18.3888 18.3255 18.3974C18.5111 18.4067 18.6437 18.5608 18.6544 18.7897C18.6603 18.9151 18.6555 19.0405 18.6555 19.1659C18.656 19.285 18.6603 19.4046 18.6549 19.5231ZM20.3647 22.6299C20.3524 22.8484 20.2054 22.9894 20.0273 22.9905C19.8427 22.9911 19.6989 22.8398 19.6834 22.6149C19.6743 22.4838 19.6818 22.3515 19.6818 22.2197H19.6812C19.6812 22.1007 19.6753 21.981 19.6823 21.8625C19.6963 21.6296 19.8261 21.4835 20.0155 21.4783C20.2086 21.4725 20.3535 21.6077 20.3658 21.8407C20.3797 22.103 20.3792 22.3676 20.3647 22.6299ZM20.3475 19.6347C20.3191 19.8107 20.2016 19.9005 20.038 19.9103C19.8749 19.92 19.7204 19.8188 19.7086 19.6416C19.6861 19.3189 19.6877 18.9922 19.7086 18.6695C19.7204 18.4929 19.8626 18.4095 20.023 18.3992C20.1759 18.3888 20.3105 18.5113 20.3508 18.6805C20.3583 18.7109 20.3679 18.7414 20.3685 18.7725C20.3706 18.9042 20.3695 19.0359 20.3695 19.1671C20.3733 19.1677 20.3776 19.1677 20.3813 19.1682C20.3712 19.3235 20.3722 19.4817 20.3475 19.6347Z" fill="#3D5EE1"/>
<path d="M5.28888 16.9297C4.82481 16.9303 4.64294 17.1264 4.64294 17.628V24.6387H8.95524V16.9297H5.28888ZM6.27011 22.6283C6.25777 22.8538 6.10219 22.9993 5.91818 22.9913C5.73255 22.9832 5.60004 22.8296 5.58877 22.6001C5.58233 22.4747 5.5877 22.3493 5.5877 22.2239C5.5877 22.1049 5.58234 21.9852 5.58824 21.8667C5.60004 21.6343 5.73041 21.4859 5.91871 21.4796C6.11239 21.4727 6.25777 21.6067 6.27011 21.8391C6.2846 22.1014 6.28406 22.366 6.27011 22.6283ZM6.25616 19.6217C6.22988 19.8029 6.10326 19.9081 5.94017 19.9122C5.77762 19.9168 5.62418 19.8167 5.61238 19.6395C5.59146 19.3168 5.59253 18.9895 5.61506 18.6668C5.62794 18.492 5.77118 18.4086 5.93213 18.4005C6.08556 18.3925 6.2288 18.5144 6.25455 18.6858C6.27816 18.8394 6.27655 18.997 6.28621 19.1483C6.27709 19.3105 6.27923 19.4681 6.25616 19.6217ZM7.34631 18.779C7.35972 18.5535 7.50082 18.3999 7.68644 18.3988C7.86402 18.3976 8.01263 18.5386 8.02389 18.7571C8.03838 19.0258 8.03838 19.2967 8.02336 19.5647C8.01048 19.7873 7.8667 19.9168 7.68054 19.9133C7.49706 19.9099 7.3624 19.7689 7.34738 19.5498C7.33826 19.4186 7.34577 19.2869 7.34577 19.1552C7.34524 19.1552 7.34523 19.1552 7.34523 19.1552C7.34523 19.0298 7.3388 18.9038 7.34631 18.779ZM8.0255 22.6283C8.0137 22.8538 7.85812 22.9993 7.6741 22.9913C7.4874 22.9832 7.3565 22.8308 7.34577 22.6001C7.33987 22.4747 7.3447 22.3493 7.3447 22.2239C7.3447 22.1049 7.33987 21.9852 7.34577 21.8667C7.35704 21.6332 7.48472 21.4859 7.67518 21.4796C7.86885 21.4727 8.0137 21.6067 8.02604 21.8391C8.03999 22.1014 8.03945 22.366 8.0255 22.6283Z" fill="#3D5EE1"/>
<path d="M17.8637 13.9823C17.6523 14.2412 17.4489 14.4902 17.2344 14.7531C17.1855 14.7123 17.1405 14.6766 17.0981 14.638C15.8255 13.4709 14.5535 12.3038 13.2815 11.1362C13.024 10.8997 12.9022 10.8986 12.6399 11.1385C11.3915 12.278 10.1441 13.418 8.89626 14.5581C8.82973 14.6191 8.76214 14.6795 8.6763 14.7571C8.47297 14.5034 8.27286 14.2538 8.05719 13.9852C9.69402 12.4822 11.3233 10.9866 12.9618 9.48242C14.5981 10.9849 16.2247 12.4776 17.8637 13.9823Z" fill="#3D5EE1"/>
<path d="M14.0589 21.2168H11.8544V24.6376H14.0589V21.2168Z" fill="#3D5EE1"/>
</svg>
