<svg width="21" height="21" viewBox="0 0 21 21" fill="none" xmlns="http://www.w3.org/2000/svg">
<g clip-path="url(#clip0_363_4489)">
<path d="M0.550798 1.15376C0.74445 1.08284 0.960701 1.04584 1.16719 1.04327C2.08973 1.03196 3.01226 1.03813 3.9348 1.03813H4.19471V0H16.7958V1.03813H17.0609C17.9834 1.03813 18.906 1.03659 19.8285 1.03864C20.6247 1.0407 20.9981 1.41381 20.9991 2.20525C20.9996 2.96432 20.9996 3.72339 20.9991 4.48245C20.9971 6.95649 19.4011 8.86829 16.9684 9.30204C16.8246 9.32722 16.7969 9.39506 16.7943 9.51995C16.7794 10.3268 16.6412 11.1111 16.3248 11.8557C15.5148 13.7629 14.1109 15.001 12.1215 15.574C12.044 15.5966 11.9659 15.6161 11.8662 15.6434C12.1123 16.3834 12.3527 17.107 12.5977 17.844C13.1971 17.844 13.7909 17.844 14.3847 17.8445C14.5897 17.8445 14.7951 17.8347 14.9996 17.8471C15.4408 17.8738 15.7731 18.0789 15.9267 18.5034C16.2149 19.2989 16.4871 20.1006 16.7645 20.9003C16.7753 20.9306 16.7717 20.9666 16.7748 21H4.22399C4.27484 20.8314 4.32056 20.6613 4.37757 20.4948C4.59485 19.8627 4.81521 19.2311 5.03557 18.6C5.21433 18.0871 5.55334 17.8455 6.09988 17.8445C6.78972 17.843 7.47957 17.844 8.16942 17.844H8.40108C8.64507 17.1096 8.88597 16.386 9.12175 15.6757C8.68308 15.5113 8.24904 15.3859 7.84735 15.1921C5.98225 14.2948 4.81316 12.826 4.35651 10.8068C4.26097 10.3833 4.24402 9.94136 4.20601 9.5071C4.1942 9.37091 4.14951 9.32363 4.01801 9.30101C1.88529 8.94075 0.342766 7.34296 0.0386791 5.1891C0.0314884 5.13668 0.0129967 5.08529 -0.000358582 5.03389V1.87326C0.0972385 1.56696 0.226679 1.27196 0.550798 1.15376ZM16.8169 7.21499C17.2879 7.09679 17.6834 6.86347 18.024 6.54226C18.6265 5.97335 18.9178 5.26927 18.9039 4.43774C18.8967 4.01581 18.9024 3.59336 18.9024 3.14882H16.8169V7.21499ZM7.49549 6.48368C7.93313 7.06904 8.36872 7.65645 8.81252 8.23719C8.89676 8.34717 8.91474 8.44379 8.88084 8.57535C8.72006 9.19566 8.56853 9.81802 8.40057 10.4918C9.06319 10.1269 9.68677 9.78976 10.3037 9.44029C10.4434 9.36114 10.5497 9.35703 10.692 9.43823C11.3084 9.78821 11.9325 10.1253 12.5946 10.4897C12.5021 10.111 12.42 9.77125 12.3362 9.43258C12.2654 9.14735 12.1991 8.86109 12.119 8.57895C12.0815 8.4479 12.1 8.35077 12.1842 8.24079C12.6275 7.65954 13.0631 7.07212 13.5007 6.48676C13.5397 6.43434 13.5747 6.37884 13.6327 6.2925H13.0528C12.5813 6.2925 12.1097 6.28684 11.6387 6.29558C11.4949 6.29815 11.4209 6.25447 11.3628 6.12033C11.1194 5.55604 10.8636 4.99741 10.6119 4.43723C10.5821 4.37145 10.5472 4.30772 10.4999 4.21367C10.4532 4.30618 10.4182 4.36836 10.3889 4.43363C10.1367 4.99381 9.88145 5.55296 9.63695 6.11622C9.58044 6.24779 9.5111 6.29815 9.36419 6.29609C8.78324 6.28684 8.20281 6.2925 7.62186 6.2925H7.36708C7.42307 6.37627 7.45646 6.43177 7.49549 6.48368ZM2.41693 5.84847C2.76108 6.48059 3.25625 6.93336 3.94147 7.16822C4.01133 7.19186 4.0853 7.20317 4.17879 7.22527V3.15139H2.09332C2.13493 4.06617 1.95104 4.99227 2.41693 5.84847Z" fill="#3D5EE1"/>
</g>
<defs>
<clipPath id="clip0_363_4489">
<rect width="21" height="21" fill="white" transform="matrix(-1 0 0 1 21 0)"/>
</clipPath>
</defs>
</svg>
