<svg width="22" height="22" viewBox="0 0 22 22" fill="none" xmlns="http://www.w3.org/2000/svg">
<g clip-path="url(#clip0_363_4501)">
<path d="M3.04623 2.99401C3.89408 2.18319 4.39192 1.18669 4.57139 0.0175781H17.3998C17.9279 2.54012 19.4531 3.99257 21.9856 4.40726V17.5983C19.4482 18.0103 17.9265 19.4668 17.3991 21.9866H4.59409C4.0653 19.4634 2.53945 18.0116 0.00691223 17.5969V4.38182C1.17863 4.25803 2.1977 3.80551 3.04623 2.99401ZM3.06961 16.8308C3.07167 17.8617 3.65479 18.6416 4.59271 18.8658C4.79075 18.9125 5.00116 18.927 5.20608 18.927C9.06642 18.9304 12.9268 18.9304 16.7878 18.9291C18.0874 18.9284 18.9222 18.099 18.9229 16.8047C18.9256 12.8579 18.9256 8.9118 18.9229 4.96569C18.9215 3.68791 18.0799 2.85578 16.7995 2.85578C12.9302 2.8544 9.06161 2.8544 5.19232 2.85578C3.91196 2.85578 3.07236 3.68723 3.06961 4.96638C3.06549 6.94356 3.06824 8.92142 3.06824 10.8986C3.06824 12.8765 3.06549 14.8537 3.06961 16.8308Z" fill="#70C4CF"/>
<path d="M18.3486 0.00238451C18.4869 1.65152 20.1193 3.37012 21.9979 3.46434V3.16106C21.9979 2.4816 22.0034 1.80213 21.9958 1.12336C21.9883 0.456276 21.542 0.00994938 20.8743 0.00375994C20.0333 -0.00380492 19.1917 0.00238451 18.3486 0.00238451Z" fill="#70C4CF"/>
<path d="M18.3336 21.9615C18.3453 21.9725 18.3576 21.9924 18.37 21.9924C19.255 21.9945 20.1407 22.0089 21.025 21.9897C21.4836 21.9801 21.9429 21.5963 21.9649 21.1417C22.0083 20.278 21.978 19.4108 21.978 18.5449C20.5264 18.5841 18.6403 19.8935 18.3336 21.9615Z" fill="#70C4CF"/>
<path d="M0.0110407 3.45895C1.51351 3.41356 3.36323 2.06289 3.6651 0.00180801C3.08062 0.00180801 2.5147 0.0011203 1.94878 0.00180801C1.63041 0.00249573 1.31203 -0.00644457 0.994349 0.0100606C0.510946 0.0348183 0.0433595 0.413749 0.022043 0.887585C-0.0171518 1.74241 0.0110407 2.60137 0.0110407 3.45895Z" fill="#70C4CF"/>
<path d="M0.0138037 21.079C0.0275564 21.5102 0.418816 21.9524 0.85271 21.971C1.78582 22.0116 2.72168 21.9834 3.65686 21.9834C3.4265 20.1829 1.78582 18.6576 0.0062387 18.5352C0.0062387 19.3976 -0.0123262 20.2393 0.0138037 21.079Z" fill="#70C4CF"/>
<path d="M5.23767 3.73438H16.7383C17.6253 3.73438 18.0413 4.15319 18.0413 5.04929C18.042 6.99139 18.0413 8.93419 18.0413 10.8763C18.0413 12.8445 18.0427 14.8128 18.0413 16.781C18.0406 17.6228 17.6143 18.0464 16.7678 18.0464C12.9171 18.0471 9.06639 18.0471 5.21635 18.0464C4.37607 18.0464 3.95112 17.618 3.95112 16.7721C3.95043 12.8528 3.95043 8.93419 3.95112 5.0149C3.95112 4.1587 4.37882 3.73438 5.23767 3.73438ZM10.848 16.5046C13.8282 16.629 16.3752 14.2213 16.4983 11.1624C16.62 8.16051 14.2188 5.62147 11.1444 5.49905C8.15528 5.38076 5.62687 7.77057 5.49416 10.8398C5.36488 13.8342 7.76677 16.3753 10.848 16.5046Z" fill="#70C4CF"/>
<path d="M6.37159 11.0101C6.38053 13.5608 8.46336 15.6364 11.0048 15.6274C13.5546 15.6178 15.6285 13.5361 15.6209 10.9936C15.6126 8.44356 13.5298 6.36873 10.9876 6.37698C8.43723 6.38592 6.36266 8.46763 6.37159 11.0101Z" fill="#70C4CF"/>
</g>
<defs>
<clipPath id="clip0_363_4501">
<rect width="22" height="22" fill="white" transform="matrix(-1 0 0 1 22 0)"/>
</clipPath>
</defs>
</svg>
