<svg width="16" height="23" viewBox="0 0 16 23" fill="none" xmlns="http://www.w3.org/2000/svg">
<g clip-path="url(#clip0_363_4536)">
<path d="M5.48438 22.9824C5.48829 22.988 5.4922 22.9937 5.49667 22.9993C5.49946 22.9937 5.5017 22.988 5.50449 22.9824H5.48438Z" fill="white"/>
<path d="M14.9164 8.64378C14.86 8.51887 14.8527 8.41478 14.9136 8.28707C15.0807 7.93711 15.2333 7.5804 15.3909 7.22537C15.5932 6.7702 15.7943 6.31503 15.9994 5.85198C15.9229 5.80472 15.8608 5.76533 15.7971 5.7282C15.0952 5.32197 14.3906 4.92025 13.6937 4.50503C13.606 4.4527 13.5232 4.33905 13.4992 4.2389C13.3919 3.78879 13.3081 3.33306 13.2131 2.88013C13.1248 2.45928 13.0331 2.03899 12.9426 1.61533C12.0446 1.71098 11.1722 1.79875 10.3021 1.90171C10.1579 1.91859 10.0669 1.88202 9.96682 1.78975C9.37445 1.24399 8.77706 0.703295 8.18134 0.161477C8.12266 0.108026 8.06119 0.0568262 7.99581 0C7.91422 0.0737053 7.84828 0.132782 7.78289 0.192984C7.1922 0.729739 6.60375 1.26874 6.00915 1.80044C5.94544 1.85726 5.84206 1.9079 5.76215 1.90115C5.31787 1.86401 4.87528 1.80719 4.43156 1.75993C3.97555 1.71098 3.51954 1.66484 3.05347 1.61645C2.91879 2.25505 2.78859 2.87563 2.65614 3.49566C2.59076 3.80173 2.5997 4.16463 2.43149 4.397C2.26328 4.62937 1.91792 4.73289 1.64856 4.88987C1.10258 5.2072 0.556041 5.52284 0 5.84466C0.0340889 5.92568 0.0614718 5.99376 0.0910901 6.06015C0.415214 6.78989 0.735986 7.52132 1.06849 8.24712C1.14058 8.40466 1.13499 8.53181 1.06402 8.68654C0.728721 9.41909 0.404038 10.1573 0.0771192 10.8938C0.050854 10.9523 0.0312948 11.0142 0.00502951 11.0839C0.770633 11.5262 1.52227 11.9645 2.27837 12.3937C2.41249 12.4697 2.48234 12.5603 2.51364 12.7156C2.68464 13.5725 2.86738 14.4271 3.04956 15.2992C3.10265 15.2992 3.15295 15.3037 3.20212 15.2986C3.94146 15.2182 4.68192 15.1484 5.41846 15.0494C5.73197 15.0072 5.99742 15.019 6.2081 15.2936C6.29304 15.4044 6.41375 15.4871 6.51881 15.5828C7.00835 16.0278 7.49845 16.4734 7.99469 16.9247C8.06231 16.8667 8.11875 16.82 8.17296 16.7705C8.77482 16.2236 9.3739 15.6745 9.97911 15.1327C10.0434 15.0747 10.1451 15.0201 10.225 15.0263C10.6324 15.0561 11.0387 15.1062 11.4449 15.1495C11.9389 15.2024 12.433 15.2559 12.9376 15.3105C12.9566 15.2407 12.975 15.185 12.9873 15.1276C13.1539 14.3309 13.326 13.5353 13.4808 12.7358C13.5143 12.562 13.5937 12.4652 13.7406 12.3825C14.4336 11.9898 15.121 11.5881 15.81 11.1891C15.8726 11.1531 15.9329 11.1126 16 11.071C15.6351 10.2507 15.2791 9.44553 14.9164 8.64378ZM7.97849 13.7356C5.08931 13.7182 2.72879 11.3276 2.75841 8.44742C2.78747 5.52509 5.13178 3.17664 8.00866 3.18677C10.8939 3.19746 13.2477 5.57235 13.2405 8.46655C13.2332 11.381 10.8643 13.7531 7.97849 13.7356Z" fill="#70C4CF"/>
<path d="M7.63983 18.4215C6.93458 19.9293 6.23269 21.4288 5.50452 22.9833C5.50173 22.989 5.4995 22.9946 5.4967 23.0002C5.49223 22.9946 5.48832 22.989 5.48441 22.9833C5.42573 22.9029 5.38829 22.8466 5.3447 22.7948C4.82107 22.1726 4.29185 21.5548 3.77493 20.9269C3.66819 20.798 3.55866 20.7502 3.39604 20.7497C2.60026 20.7485 1.80448 20.7367 1.0087 20.7272C0.929903 20.726 0.851666 20.7182 0.74884 20.712C0.780135 20.6276 0.798577 20.5651 0.82596 20.5072C1.38815 19.3037 1.95369 18.1019 2.51085 16.8962C2.57623 16.7544 2.65726 16.7054 2.81038 16.6902C3.57207 16.6165 4.33321 16.535 5.09322 16.4404C5.3229 16.4117 5.49447 16.4489 5.67162 16.6177C6.23269 17.1533 6.81443 17.667 7.38724 18.1891C7.46995 18.2639 7.55098 18.3399 7.63983 18.4215Z" fill="#70C4CF"/>
<path d="M15.2556 20.7502C14.4106 20.7502 13.6076 20.7631 12.8057 20.744C12.4955 20.7361 12.2888 20.829 12.0915 21.0771C11.5869 21.714 11.0493 22.3245 10.4932 22.9822C9.77456 21.4473 9.06875 19.9406 8.35791 18.422C8.88098 17.9449 9.3979 17.4729 9.91538 17.0014C9.95953 16.9609 10.0121 16.9271 10.0467 16.8804C10.3708 16.441 10.7939 16.3892 11.303 16.4775C11.9389 16.5878 12.5872 16.6238 13.2293 16.7032C13.3081 16.7127 13.4159 16.7724 13.4472 16.8388C14.0401 18.0856 14.6236 19.3369 15.2081 20.587C15.2226 20.6186 15.2277 20.6546 15.2556 20.7502Z" fill="#70C4CF"/>
<path d="M11.901 8.47282C11.8859 10.6558 10.1244 12.4085 7.96622 12.3876C5.82253 12.3679 4.0812 10.5962 4.09685 8.45144C4.11305 6.27966 5.86612 4.52424 8.00981 4.53324C10.1591 4.5428 11.9161 6.3213 11.901 8.47282Z" fill="#70C4CF"/>
</g>
<defs>
<clipPath id="clip0_363_4536">
<rect width="16" height="23" fill="white"/>
</clipPath>
</defs>
</svg>
