<?xml version="1.0" encoding="UTF-8"?>
<!DOCTYPE svg PUBLIC "-//W3C//DTD SVG 1.1//EN" "http://www.w3.org/Graphics/SVG/1.1/DTD/svg11.dtd">
<!-- Creator: CorelDRAW -->
<svg xmlns="http://www.w3.org/2000/svg" xml:space="preserve" width="6.82666in" height="6.82666in" style="shape-rendering:geometricPrecision; text-rendering:geometricPrecision; image-rendering:optimizeQuality; fill-rule:evenodd; clip-rule:evenodd"
viewBox="0 0 6.82666 6.82666"
 xmlns:xlink="http://www.w3.org/1999/xlink">
 <defs>
  <style type="text/css">
   <![CDATA[
    .fil0 {fill:#607D8B}
    .fil1 {fill:#FFFFFE}
    .fil2 {fill:#FFFFFE;fill-rule:nonzero}
   ]]>
  </style>
 </defs>
 <g id="Layer_x0020_1">
  <metadata id="CorelCorpID_0Corel-Layer"/>
  <rect class="fil0" width="6.82666" height="6.82666" rx="0.853335" ry="0.853335"/>
  <path class="fil1" d="M0.80515 3.24604l0.403299 -0.0550276 0.00427559 0.107969c0.00217717,0.0549409 0.0117677,0.174358 0.0510787,0.217795 0.0303583,0.0335551 0.0716575,0.0428386 0.115673,0.0428386 0.0353898,0 0.0704094,-0.00630315 0.100681,-0.0254646 0.0234331,-0.0148268 0.0394764,-0.0333622 0.0485827,-0.059626 0.017748,-0.0512126 0.0190709,-0.137402 0.0190709,-0.191169l0 -1.32638 0.432067 0 0 1.3131c0,0.125169 -0.0112008,0.270484 -0.0623228,0.386248 -0.0447677,0.101358 -0.116839,0.180244 -0.21398,0.233587 -0.0995,0.0546299 -0.210059,0.0764528 -0.322854,0.0764528 -0.163087,0 -0.318362,-0.043937 -0.431551,-0.166445 -0.116917,-0.126535 -0.148705,-0.30302 -0.145591,-0.469827l0.00157087 -0.0840512z"/>
  <path class="fil1" d="M5.78546 2.87096c0.049315,0.0319803 0.0934094,0.0717441 0.130539,0.120409 0.0735984,0.0964646 0.107287,0.208717 0.107287,0.329756 0,0.0965118 -0.0205866,0.189433 -0.0631929,0.276146 -0.0383071,0.0779646 -0.0899803,0.148654 -0.15985,0.201197 -0.0679646,0.0511063 -0.147831,0.0837244 -0.229799,0.10465 -0.100346,0.025622 -0.208665,0.032937 -0.311937,0.032937l-0.778055 0 0 -1.97909 0.767264 0c0.121413,0 0.254374,0.0131772 0.366713,0.0621299 0.100075,0.0436063 0.180087,0.112378 0.237618,0.205091 0.0543504,0.0875945 0.0849016,0.183835 0.0849016,0.287106 0,0.0955551 -0.0267913,0.184988 -0.0767795,0.266378 -0.0212717,0.0346417 -0.046437,0.0656339 -0.0747087,0.0932874zm-0.872531 -0.164768l0.287469 0c0.0557362,0 0.143205,-0.00057874 0.196831,-0.0166299 0.0319724,-0.00957087 0.0640433,-0.0250748 0.084185,-0.0526732 0.0206417,-0.0282717 0.0267874,-0.0634488 0.0267874,-0.0977835 0,-0.0367756 -0.0073937,-0.0723307 -0.027185,-0.103677 -0.0165472,-0.0262165 -0.0387283,-0.0420551 -0.0682165,-0.0513819 -0.0633819,-0.0200433 -0.175594,-0.0203346 -0.241874,-0.0203346l-0.257996 0 0 0.34248zm0 0.823118l0.345579 0c0.0431772,0 0.10085,0.000858268 0.143307,-0.00675984 0.0349764,-0.00627953 0.0713819,-0.0169764 0.101803,-0.0358189 0.0242362,-0.0150039 0.0419764,-0.0371772 0.0554134,-0.0620236 0.0172913,-0.0319803 0.0234724,-0.0675157 0.0234724,-0.103583 0,-0.0426378 -0.00919685,-0.0823661 -0.0336181,-0.117654 -0.0228346,-0.0330039 -0.0536811,-0.0534921 -0.0917087,-0.0659094 -0.0668031,-0.0218031 -0.160472,-0.024622 -0.230217,-0.024622l-0.314031 0 0 0.41637z"/>
  <path class="fil1" d="M2.66558 2.0901c0.249343,-0.153244 0.54685,-0.200807 0.831488,-0.13287 0.282862,0.0675157 0.521795,0.245661 0.679,0.489169 0.00476772,0.00738583 0.00179921,0.00251969 0.00638583,0.0103937 0.145768,0.250157 0.197067,0.543433 0.129606,0.826071 -0.0675118,0.282843 -0.245685,0.521724 -0.48913,0.678972 -0.00748031,0.00483465 -0.0026063,0.00185039 -0.0104409,0.00641732 -0.250161,0.145744 -0.543433,0.197063 -0.826067,0.129602 -0.282835,-0.0675118 -0.521567,-0.245787 -0.678949,-0.489091 -0.00487008,-0.0075315 -0.00190157,-0.00269685 -0.00640945,-0.0104291 -0.14589,-0.250138 -0.197102,-0.543469 -0.129634,-0.826122 0.0679646,-0.284724 0.244713,-0.528811 0.49415,-0.682114zm0.741689 0.244606c-0.184484,-0.0440315 -0.37689,-0.0133819 -0.538516,0.0859528 -0.161535,0.0992835 -0.275831,0.256945 -0.319846,0.441354 -0.0439016,0.183925 -0.0135079,0.375748 0.0851102,0.537122l0.000996063 0.00162992c0.0988819,0.161807 0.256925,0.27563 0.441209,0.319614 0.183972,0.0439134 0.375701,0.0131732 0.537217,-0.0851732l0.0016811 -0.00102362c0.161969,-0.098622 0.2755,-0.256917 0.319465,-0.441118 0.0439291,-0.184047 0.0128937,-0.375717 -0.0852677,-0.53737l-0.000992126 -0.00163386c-0.0984291,-0.162094 -0.256917,-0.275406 -0.441055,-0.319354z"/>
  <path class="fil2" d="M3.88516 3.88704c-0.0283701,-0.0461614 -0.0887992,-0.0605787 -0.134957,-0.0322047 -0.0461614,0.0283701 -0.0605787,0.0887992 -0.0322047,0.134957l0.226122 0.367921c0.028374,0.0461575 0.0887992,0.0605787 0.134961,0.0322047 0.0461575,-0.028374 0.0605748,-0.0887992 0.0322047,-0.134961l-0.226126 -0.367917z"/>
  <path class="fil2" d="M3.85607 4.29665l0.24289 -0.14928 0.051378 0.0835827 -0.0513898 -0.083622c0.0461811,-0.028378 0.106634,-0.0139488 0.135012,0.0322323 0.000496063,0.000807087 0.000976378,0.00161417 0.00144488,0.00242913l0.563827 0.917374 -0.0835827 0.051378 0.0836181 -0.0513937c0.0283858,0.0461772 0.0139567,0.106626 -0.0322244,0.135012 -0.000795276,0.000488189 -0.00159449,0.000968504 -0.00240551,0.00142913l-0.24289 0.149283 -0.051374 -0.0835827 0.0513937 0.083622c-0.0461772,0.0283819 -0.10663,0.0139528 -0.135012,-0.0322244 -0.000492126,-0.000799213 -0.000968504,-0.00159843 -0.00143307,-0.00240551l-0.563843 -0.917406 0.0835827 -0.051378 -0.0836181 0.0513937c-0.0283858,-0.0461772 -0.0139567,-0.10663 0.0322205,-0.135012 0.000799213,-0.000492126 0.00159843,-0.000968504 0.00240551,-0.00143307z"/>
  <path class="fil2" d="M3.80831 4.32601c-0.0461614,0.028374 -0.0605787,0.0887992 -0.0322047,0.134961 0.028374,0.0461575 0.0887992,0.0605787 0.134957,0.0322047l0.336035 -0.206528c0.0461575,-0.028374 0.0605787,-0.0887992 0.0322047,-0.134961 -0.028374,-0.0461614 -0.0887992,-0.0605787 -0.134961,-0.0322047l-0.336031 0.206528z"/>
  <path class="fil2" d="M2.5942 2.95654c-0.00287402,0.0227244 0.0132244,0.0434803 0.0359488,0.0463543 0.0227244,0.00287402 0.0434803,-0.0132205 0.0463543,-0.0359449 0.0186929,-0.146642 0.0905433,-0.275008 0.19474,-0.36676 0.104087,-0.0916614 0.24052,-0.146646 0.3885,-0.146646 0.0140236,0 0.027374,0.000433071 0.0400157,0.00129528 0.0137244,0.000929134 0.0270079,0.00227953 0.039815,0.0040315 0.0227244,0.00305118 0.0436299,-0.0128976 0.0466811,-0.035622 0.00305118,-0.0227244 -0.0128976,-0.0436299 -0.035622,-0.0466811 -0.0154724,-0.00211811 -0.0306024,-0.0036811 -0.0453386,-0.00468504 -0.0158268,-0.00107874 -0.0310236,-0.00161811 -0.0455512,-0.00161811 -0.168866,0 -0.32461,0.0627913 -0.443476,0.167465 -0.118764,0.104583 -0.200693,0.25115 -0.222067,0.418811z"/>
 </g>
</svg>
