<?xml version="1.0" encoding="iso-8859-1"?>
<!-- Uploaded to: SVG Repo, www.svgrepo.com, Generator: SVG Repo Mixer Tools -->
<svg version="1.1" id="Layer_1" xmlns="http://www.w3.org/2000/svg" xmlns:xlink="http://www.w3.org/1999/xlink" 
	 viewBox="0 0 512 512" xml:space="preserve">
<circle style="fill:#E2574C;" cx="256" cy="256" r="256"/>
<path style="fill:#D15046;" d="M488.996,362.032c-0.684-1.756-1.496-3.444-2.5-5c-0.672-3.928-2.092-7.604-4.112-10.876
	c-0.7-3.428-2.036-6.54-3.852-9.296c-0.644-3.92-2.056-7.572-4.08-10.804c-0.788-4.372-2.484-8.508-4.908-12.148
	c-0.796-2.6-1.916-5.084-3.304-7.372c-0.732-3.324-2.028-6.392-3.772-9.136c-0.688-3.916-2.108-7.592-4.12-10.892
	c-0.716-3.4-2.052-6.504-3.84-9.272c-0.668-3.916-2.084-7.584-4.112-10.86c-0.696-3.424-2.028-6.552-3.848-9.316
	c-0.644-3.916-2.056-7.564-4.084-10.796c-0.688-3.864-2.112-7.536-4.112-10.86c-0.804-3.796-2.38-7.296-4.528-10.38
	c-0.764-2.664-1.9-5.148-3.336-7.416c-0.688-3.904-2.104-7.58-4.116-10.868c-0.708-3.408-2.044-6.524-3.848-9.304
	c-0.664-3.916-2.084-7.584-4.116-10.856c-0.864-4.292-2.728-8.12-5.324-11.368c-4.052-11.236-14.312-19.22-27.076-19.22h-9.048
	c-0.564-0.84,0.744-1.58-3.256-2.252v-1.364c0-3.544,0-6.692-4-8.888v-1.356c0-3.756-1.128-7.072-3.828-9.264
	c-1.38-5.104-6.312-8.884-11.856-8.884c-6.628,0-12.316,5.372-12.316,12v2.048v2.056V156H176.96c-0.56-0.84,0.744-1.58-3.256-2.252
	v-1.364c0-3.544,0-6.692-4-8.888v-1.356c0-3.756-1.128-7.072-3.828-9.264c-1.38-5.104-6.312-8.884-11.856-8.884
	c-6.628,0-12.316,5.372-12.316,12v2.048v2.056V156h-15.7c-16.572,0-32.3,13.428-32.3,30v2.048v2.056v3.904v2.048v2.056V204v2.048
	v2.056V212v2.048v2.056V324v2.048v2.056v29.904v2.048v2.056c0,5.264,2.272,10.204,5.028,14.492c0.632,3.796,2.372,7.448,4.428,10.78
	c0.664,3.392,2.136,6.576,4.004,9.436c0.604,3.812,2.112,7.46,4.188,10.772c0.704,3.732,2.28,7.176,4.464,10.236
	c0.74,2.736,1.924,5.296,3.468,7.632c0.596,3.848,2.032,7.492,4.12,10.768c0.636,3.44,1.952,6.628,3.856,9.456
	c0.572,3.852,1.996,7.476,4.088,10.736c0.624,3.784,2.044,7.436,4.112,10.768c0.66,3.384,1.968,6.572,3.844,9.436
	c0.48,3.04,1.5,5.968,2.948,8.72C176.524,502.376,215.132,512,256,512C359.552,512,448.676,450.48,488.996,362.032z"/>
<path style="fill:#F5F5F5;" d="M386,156H126c-16.572,0-31.036,13.428-31.036,30v138v34c0,16.572,14.464,30,31.036,30h34h192h34
	c16.572,0,28.96-13.428,28.96-30v-34V186C414.96,169.428,402.572,156,386,156z"/>
<path style="fill:#FFD464;" d="M386,164H126c-16.572,0-31.036,13.428-31.036,30v18h320v-18C414.96,177.428,402.572,164,386,164z"/>
<path style="fill:#263740;" d="M386,156H126c-16.572,0-31.036,13.428-31.036,30v18h320v-18C414.96,169.428,402.572,156,386,156z"/>
<g>
	<path style="fill:#F5F5F5;" d="M154.964,188c-6.628,0-12-5.372-12-12v-40c0-6.628,5.372-12,12-12s12,5.372,12,12v40
		C166.964,182.628,161.596,188,154.964,188z"/>
	<path style="fill:#F5F5F5;" d="M354.96,188c-6.624,0-12-5.372-12-12v-40c0-6.628,5.376-12,12-12c6.632,0,12,5.372,12,12v40
		C366.96,182.628,361.592,188,354.96,188z"/>
</g>
<g>
	<rect x="122.964" y="232" style="fill:#E6E6E6;" width="24" height="24"/>
	<rect x="162.964" y="232" style="fill:#E6E6E6;" width="24" height="24"/>
	<rect x="202.964" y="232" style="fill:#E6E6E6;" width="24" height="24"/>
	<rect x="242.964" y="232" style="fill:#E6E6E6;" width="24" height="24"/>
	<rect x="282.96" y="232" style="fill:#E6E6E6;" width="24" height="24"/>
	<rect x="322.96" y="232" style="fill:#E6E6E6;" width="24" height="24"/>
</g>
<rect x="362.96" y="232" style="fill:#CC584C;" width="24" height="24"/>
<g>
	<rect x="122.964" y="268" style="fill:#E6E6E6;" width="24" height="24"/>
	<rect x="162.964" y="268" style="fill:#E6E6E6;" width="24" height="24"/>
	<rect x="202.964" y="268" style="fill:#E6E6E6;" width="24" height="24"/>
	<rect x="242.964" y="268" style="fill:#E6E6E6;" width="24" height="24"/>
	<rect x="282.96" y="268" style="fill:#E6E6E6;" width="24" height="24"/>
	<rect x="322.96" y="268" style="fill:#E6E6E6;" width="24" height="24"/>
</g>
<rect x="362.96" y="268" style="fill:#CC584C;" width="24" height="24"/>
<g>
	<rect x="122.964" y="308" style="fill:#E6E6E6;" width="24" height="24"/>
	<rect x="162.964" y="308" style="fill:#E6E6E6;" width="24" height="24"/>
	<rect x="202.964" y="308" style="fill:#E6E6E6;" width="24" height="24"/>
	<rect x="242.964" y="308" style="fill:#E6E6E6;" width="24" height="24"/>
	<rect x="282.96" y="308" style="fill:#E6E6E6;" width="24" height="24"/>
	<rect x="322.96" y="308" style="fill:#E6E6E6;" width="24" height="24"/>
</g>
<rect x="362.96" y="308" style="fill:#CC584C;" width="24" height="24"/>
<g>
	<rect x="122.964" y="348" style="fill:#E6E6E6;" width="24" height="24"/>
	<rect x="162.964" y="348" style="fill:#E6E6E6;" width="24" height="24"/>
	<rect x="202.964" y="348" style="fill:#E6E6E6;" width="24" height="24"/>
	<rect x="242.964" y="348" style="fill:#E6E6E6;" width="24" height="24"/>
	<rect x="282.96" y="348" style="fill:#E6E6E6;" width="24" height="24"/>
	<rect x="322.96" y="348" style="fill:#E6E6E6;" width="24" height="24"/>
</g>
<rect x="362.96" y="348" style="fill:#CC584C;" width="24" height="24"/>
</svg>