<svg width="18" height="19" viewBox="0 0 18 19" fill="none" xmlns="http://www.w3.org/2000/svg">
<path d="M9.01494 2.68262C6.53244 2.68262 4.51494 4.70012 4.51494 7.18262V9.35012C4.51494 9.80762 4.31994 10.5051 4.08744 10.8951L3.22494 12.3276C2.69244 13.2126 3.05994 14.1951 4.03494 14.5251C7.26744 15.6051 10.7549 15.6051 13.9874 14.5251C14.8949 14.2251 15.2924 13.1526 14.7974 12.3276L13.9349 10.8951C13.7099 10.5051 13.5149 9.80762 13.5149 9.35012V7.18262C13.5149 4.70762 11.4899 2.68262 9.01494 2.68262Z" stroke="#2C323F" stroke-width="1.3" stroke-miterlimit="10" stroke-linecap="round"/>
<path d="M10.4024 2.90008C10.1699 2.83258 9.92994 2.78008 9.68244 2.75008C8.96244 2.66008 8.27244 2.71258 7.62744 2.90008C7.84494 2.34508 8.38494 1.95508 9.01494 1.95508C9.64494 1.95508 10.1849 2.34508 10.4024 2.90008Z" stroke="#2C323F" stroke-width="1.3" stroke-miterlimit="10" stroke-linecap="round" stroke-linejoin="round"/>
<path d="M11.2651 14.7949C11.2651 16.0324 10.2526 17.0449 9.01514 17.0449C8.40014 17.0449 7.83014 16.7899 7.42514 16.3849C7.02014 15.9799 6.76514 15.4099 6.76514 14.7949" stroke="#2C323F" stroke-width="1.3" stroke-miterlimit="10"/>
</svg>
