<svg xmlns="http://www.w3.org/2000/svg" viewBox="0 0 64 64"><defs><style>.cls-1{isolation:isolate;}.cls-2{fill:#4094c9;}.cls-3{fill:#f0e5cd;}.cls-4{fill:#37b44a;}.cls-5{fill:none;stroke:#010101;stroke-linecap:round;stroke-linejoin:round;stroke-width:2px;}.cls-6,.cls-7{opacity:0.25;}.cls-6{mix-blend-mode:multiply;}.cls-8{fill:#010101;}.cls-9{mix-blend-mode:overlay;}.cls-10{fill:#fff;}</style></defs><title>Icon Color14</title><g class="cls-1"><g id="Color"><g id="Color-2" data-name="Color"><path class="cls-2" d="M33.33,24.51a3.6,3.6,0,0,0,0,5.14l4.76,4.7L41.8,38V49.75a2.66,2.66,0,0,1-2.66,2.66H28V13.57l-2.22-1-9.53-4.4L7.93,4.32v-.2H39.15a2.66,2.66,0,0,1,2.66,2.66v9.35L38.1,19.79Z"/><path class="cls-3" d="M33.33,24.51a3.6,3.6,0,0,0,0,5.14l4.76,4.7V48.23H28V13.57l-2.22-1-9.53-4.4H38.09V19.79Z"/><path class="cls-2" d="M27.95,16V59a1.84,1.84,0,0,1-2.61,1.67L9.51,53.37a3.51,3.51,0,0,1-2-3.18v-46l.44.2L16.2,8.17l9.53,4.39A3.82,3.82,0,0,1,27.95,16Z"/><path class="cls-4" d="M59.64,22V32a2,2,0,0,1-2,2H46v2.59a2.35,2.35,0,0,1-4,1.67L41.8,38l-3.71-3.66-4.76-4.7a3.6,3.6,0,0,1,0-5.14l4.76-4.7,3.71-3.66.22-.22a2.36,2.36,0,0,1,4,1.68v2.44H57.65A2,2,0,0,1,59.64,22Z"/><path class="cls-5" d="M23.54,38.93H22a1.61,1.61,0,0,1-1.61-1.61V27.22A1.61,1.61,0,0,1,22,25.61h1.56Z"/><line class="cls-5" x1="11.15" y1="11.85" x2="11.15" y2="22.05"/><line class="cls-5" x1="11.15" y1="25.62" x2="11.15" y2="32.05"/></g></g><g id="Shadow" class="cls-6"><g id="Shadow-2" data-name="Shadow" class="cls-7"><path class="cls-8" d="M41.26,16.64l-4.76,4.7c-.06.06-.1.13-.16.19l1.75-1.73,3.71-3.66v0Z"/><path class="cls-8" d="M31.12,49.26V10.42l-2.22-1L19.37,5l-1.86-.86H7.91v.2L16.2,8.17l9.53,4.4,2.22,1V52.43H39.12a2.66,2.66,0,0,0,2.66-2.66v-.51Z"/><path class="cls-8" d="M35.84,22l-.13.15,2.38-2.35v0Z"/><polygon class="cls-8" points="30.46 45.74 30.46 11.08 28.24 10.06 24.14 8.17 16.21 8.17 25.74 12.57 27.95 13.58 27.95 48.24 38.09 48.24 38.09 45.74 30.46 45.74"/><path class="cls-8" d="M43.68,34.86l-.22-.22L39.75,31,35,26.28a3.59,3.59,0,0,1-1.06-2.36l-.61.61a3.6,3.6,0,0,0,0,5.14l4.76,4.7L41.79,38l.22.22a2.35,2.35,0,0,0,4-1.67V35.44A2.33,2.33,0,0,1,43.68,34.86Z"/><path class="cls-8" d="M59.32,30.59H47.7v2.59a2.32,2.32,0,0,1-.14.8H57.65a2,2,0,0,0,2-2V30.56A1.73,1.73,0,0,1,59.32,30.59Z"/><path class="cls-8" d="M13.19,50.69a3.51,3.51,0,0,1-2-3.18V5.84L7.91,4.34l-.44-.2v46a3.5,3.5,0,0,0,2,3.18l15.83,7.3A1.84,1.84,0,0,0,27.95,59V57.5Z"/></g></g><g id="Highlight" class="cls-9"><g id="Highlight-2" data-name="Highlight"><path class="cls-10" d="M38.09,19.81l3.71-3.66V6.8a2.66,2.66,0,0,0-2.66-2.66H37.39A2.66,2.66,0,0,1,40,6.8v9.35l-3.71,3.66-4.76,4.7a3.6,3.6,0,0,0,0,5.14l4.76,4.7L40,38V49.75a2.66,2.66,0,0,1-2.66,2.66h1.75a2.66,2.66,0,0,0,2.66-2.66V38l-3.71-3.66-4.76-4.7a3.6,3.6,0,0,1,0-5.14Z"/><path class="cls-10" d="M33.21,24.66,31,26.84A3.6,3.6,0,0,0,31,32l4.76,4.7V48.23h2.33V34.35l-4.76-4.7A3.59,3.59,0,0,1,33.21,24.66Z"/><polygon class="cls-10" points="16.21 8.17 21.25 10.49 35.76 10.49 35.76 22.11 38.09 19.81 38.09 8.17 16.21 8.17"/><path class="cls-10" d="M25.74,12.56,16.21,8.17,7.92,4.34l-.44-.2V6.38l3.88,1.79,9.53,4.39A3.82,3.82,0,0,1,23.11,16V59a1.67,1.67,0,0,1-.11.59l2.35,1.08A1.84,1.84,0,0,0,28,59V16A3.85,3.85,0,0,0,25.74,12.56Z"/><path class="cls-10" d="M57.64,20H46V17.6a2.36,2.36,0,0,0-4-1.68l-.22.22L38.08,19.8l-4.76,4.7a1.71,1.71,0,0,0-.11.14L35.84,22l3.71-3.66.22-.22a2.36,2.36,0,0,1,4,1.68v2.44H55.4a2,2,0,0,1,2,2V34h.24a2,2,0,0,0,2-2V22A2,2,0,0,0,57.64,20Z"/></g></g><g id="Line"><g id="Line-2" data-name="Line"><path class="cls-5" d="M33.33,24.51a3.6,3.6,0,0,0,0,5.14l4.76,4.7L41.8,38V49.75a2.66,2.66,0,0,1-2.66,2.66H28V13.57l-2.22-1-9.53-4.4L7.93,4.32v-.2H39.15a2.66,2.66,0,0,1,2.66,2.66v9.35L38.1,19.79Z"/><path class="cls-5" d="M33.33,24.51a3.6,3.6,0,0,0,0,5.14l4.76,4.7V48.23H28V13.57l-2.22-1-9.53-4.4H38.09V19.79Z"/><path class="cls-5" d="M27.95,16V59a1.84,1.84,0,0,1-2.61,1.67L9.51,53.37a3.51,3.51,0,0,1-2-3.18v-46l.44.2L16.2,8.17l9.53,4.39A3.82,3.82,0,0,1,27.95,16Z"/><path class="cls-5" d="M59.64,22V32a2,2,0,0,1-2,2H46v2.59a2.35,2.35,0,0,1-4,1.67L41.8,38l-3.71-3.66-4.76-4.7a3.6,3.6,0,0,1,0-5.14l4.76-4.7,3.71-3.66.22-.22a2.36,2.36,0,0,1,4,1.68v2.44H57.65A2,2,0,0,1,59.64,22Z"/><path class="cls-5" d="M23.54,38.93H22a1.61,1.61,0,0,1-1.61-1.61V27.22A1.61,1.61,0,0,1,22,25.61h1.56Z"/><line class="cls-5" x1="11.15" y1="11.85" x2="11.15" y2="22.05"/><line class="cls-5" x1="11.15" y1="25.62" x2="11.15" y2="32.05"/></g></g></g></svg>