<?xml version="1.0" encoding="UTF-8"?>
<!DOCTYPE svg PUBLIC "-//W3C//DTD SVG 1.1//EN" "http://www.w3.org/Graphics/SVG/1.1/DTD/svg11.dtd">
<!-- Creator: CorelDRAW -->
<svg xmlns="http://www.w3.org/2000/svg" xml:space="preserve" width="6.82666in" height="6.82666in" style="shape-rendering:geometricPrecision; text-rendering:geometricPrecision; image-rendering:optimizeQuality; fill-rule:evenodd; clip-rule:evenodd"
viewBox="0 0 6.82666 6.82666"
 xmlns:xlink="http://www.w3.org/1999/xlink">
 <defs>
  <style type="text/css">
   <![CDATA[
    .fil0 {fill:none}
    .fil1 {fill:#F44336}
    .fil2 {fill:#FBC02D}
   ]]>
  </style>
 </defs>
 <g id="Layer_x0020_1">
  <metadata id="CorelCorpID_0Corel-Layer"/>
  <g id="_486847888">
   <rect id="_486848464" class="fil0" width="6.82666" height="6.82666"/>
   <rect id="_486848008" class="fil0" x="0.853331" y="0.853331" width="5.12" height="5.12"/>
  </g>
  <path class="fil1" d="M1.12281 3.14385l4.58105 0c0.14878,0 0.269476,0.120697 0.269476,0.269476 0,0.14878 -0.120697,0.269476 -0.269476,0.269476l-4.58105 0c-0.14878,0 -0.269476,-0.120697 -0.269476,-0.269476 0,-0.14878 0.120697,-0.269476 0.269476,-0.269476z"/>
  <path class="fil2" d="M1.12281 5.16491l4.58105 0c0.14878,0 0.269476,0.120697 0.269476,0.269476 0,0.14878 -0.120697,0.269472 -0.269476,0.269472l-4.58105 0c-0.14878,0 -0.269476,-0.120693 -0.269476,-0.269472 0,-0.14878 0.120697,-0.269476 0.269476,-0.269476z"/>
  <path class="fil2" d="M1.12281 1.12281l4.58105 0c0.14878,0 0.269476,0.120693 0.269476,0.269472 0,0.14878 -0.120697,0.269476 -0.269476,0.269476l-4.58105 0c-0.14878,0 -0.269476,-0.120697 -0.269476,-0.269476 0,-0.14878 0.120697,-0.269472 0.269476,-0.269472z"/>
 </g>
</svg>
