<?xml version="1.0" encoding="UTF-8"?>
<!DOCTYPE svg PUBLIC "-//W3C//DTD SVG 1.1//EN" "http://www.w3.org/Graphics/SVG/1.1/DTD/svg11.dtd">
<!-- Creator: CorelDRAW -->
<svg xmlns="http://www.w3.org/2000/svg" xml:space="preserve" width="6.82666in" height="6.82666in" style="shape-rendering:geometricPrecision; text-rendering:geometricPrecision; image-rendering:optimizeQuality; fill-rule:evenodd; clip-rule:evenodd"
viewBox="0 0 6.82666 6.82666"
 xmlns:xlink="http://www.w3.org/1999/xlink">
 <defs>
  <style type="text/css">
   <![CDATA[
    .fil0 {fill:#7E57C2}
    .fil1 {fill:#FFFFFE}
    .fil2 {fill:#FFFFFE;fill-rule:nonzero}
   ]]>
  </style>
 </defs>
 <g id="Layer_x0020_1">
  <metadata id="CorelCorpID_0Corel-Layer"/>
  <rect class="fil0" width="6.82666" height="6.82666" rx="0.853335" ry="0.853335"/>
  <g id="_213225256">
   <path id="_213225856" class="fil1" d="M1.57333 0.853331l2.50201 0 0 1.07132c0,0.117783 0.0955591,0.213335 0.213335,0.213335l1.07132 0 0 3.72868c0,0.0589094 -0.0477598,0.106669 -0.106669,0.106669l-3.68 0c-0.0589094,0 -0.106669,-0.0477598 -0.106669,-0.106669l0 -4.90667c0,-0.0589094 0.0477598,-0.106669 0.106669,-0.106669zm1.17233 2.72972l1.33534 0 0 0.16 -1.33534 0 0 -0.16zm0.334772 -1.00132c-0.0673898,0.0380433 -0.125425,0.0945 -0.169031,0.163516 -0.0540433,0.0855197 -0.0860315,0.190409 -0.0860315,0.303114l0 0.00848425c0,0.0369843 0.0135039,0.0711378 0.0352559,0.0963661 0.0236535,0.027437 0.0569173,0.0444724 0.0940787,0.0444724l0.917248 0c0.0371654,0 0.0704291,-0.0170354 0.0940827,-0.0444724 0.021752,-0.0252283 0.0352559,-0.0593819 0.0352559,-0.0963661l0 -0.00848425c0,-0.111921 -0.0314685,-0.216047 -0.084689,-0.301106 -0.0433189,-0.0692283 -0.101094,-0.125965 -0.168256,-0.164362 -0.0178898,0.0364921 -0.0417008,0.0701181 -0.0722795,0.099622 -0.182717,0.176307 -0.481524,0.120043 -0.595634,-0.100783zm0.332898 0.148165l-0.000125984 0 -0.000208661 -3.93701e-006c-0.0703898,-9.05512e-005 -0.154894,-0.0288425 -0.219433,-0.0911181 -0.0515433,-0.0497362 -0.0905236,-0.120382 -0.0996063,-0.214114 -0.000669291,-0.00694488 -0.00119685,-0.0189764 -0.00158661,-0.0319843 -0.000527559,-0.0173701 -0.000846457,-0.0384528 -0.00092126,-0.0485945 -0.000937008,-0.120929 0.0381024,-0.199823 0.0997756,-0.249929 0.0600276,-0.0487717 0.138654,-0.0666969 0.22098,-0.0683189l-3.93701e-006 -0.000212598c0.00254331,-4.72441e-005 0.00503937,6.69291e-005 0.00749606,0.000338583 0.0804252,0.00227559 0.156992,0.0204606 0.21574,0.0681929 0.0616693,0.0501063 0.100713,0.129 0.0997756,0.249929 -7.48031e-005,0.0101417 -0.000393701,0.0312244 -0.00092126,0.0485945 -0.000389764,0.0130079 -0.000917323,0.0250394 -0.00158661,0.0319843 -0.00933858,0.0964055 -0.0452638,0.167114 -0.0964961,0.216543 -0.0598307,0.0577323 -0.138949,0.0845591 -0.220134,0.0884646l3.93701e-006 0.000161417c-0.000917323,4.33071e-005 -0.00183465,6.29921e-005 -0.00274803,6.29921e-005l0 3.93701e-006zm-1.3852 1.95123l2.77039 0 0 0.16 -2.77039 0 0 -0.16zm0 -0.549039l2.77039 0 0 0.16 -2.77039 0 0 -0.16z"/>
   <path id="_213225592" class="fil2" d="M4.28868 2.03132c-0.0589094,0 -0.106669,-0.0477598 -0.106669,-0.106669l0 -0.963776c0,-0.0594173 0.0470197,-0.107543 0.106669,-0.107543 0.0297913,0 0.0567205,0.0122165 0.0760748,0.0319094l0.963992 0.963992 7.87402e-006 -7.87402e-006c0.0416535,0.0416535 0.0416535,0.109197 0,0.15085 -0.0208268,0.0208268 -0.048126,0.0312441 -0.0754252,0.0312402l-0.96465 3.93701e-006z"/>
  </g>
 </g>
</svg>
