<svg width="33" height="33" viewBox="0 0 33 33" fill="none" xmlns="http://www.w3.org/2000/svg">
<path d="M8.36794 32.8833C6.40542 32.794 5.33932 32.4674 4.63022 32.1909C3.69064 31.825 3.02077 31.3896 2.3156 30.6854C1.61043 29.9812 1.17398 29.3113 0.810117 28.3717C0.533539 27.6626 0.206943 26.5965 0.117693 24.634C0.0196154 22.5126 0 21.8761 0 16.5015C0 11.1268 0.021577 10.4913 0.116712 8.36794C0.205962 6.40542 0.53452 5.34128 0.809136 4.63022C1.17496 3.69064 1.61141 3.02077 2.31462 2.31462C3.01881 1.61043 3.68868 1.173 4.62924 0.809136C5.33834 0.532559 6.40443 0.205962 8.36696 0.116712C10.4893 0.0196154 11.1268 0 16.4995 0C21.8741 0 22.5097 0.021577 24.633 0.116712C26.5956 0.205962 27.6597 0.53452 28.3708 0.809136C29.3103 1.173 29.9802 1.61043 30.6854 2.31462C31.3906 3.01881 31.825 3.68966 32.1909 4.62924C32.4674 5.33834 32.794 6.40443 32.8833 8.36696C32.9804 10.4903 33 11.1259 33 16.5005C33 21.8732 32.9804 22.5107 32.8833 24.634C32.794 26.5965 32.4655 27.6626 32.1909 28.3717C31.825 29.3113 31.3896 29.9812 30.6854 30.6854C29.9812 31.3896 29.3103 31.825 28.3708 32.1909C27.6617 32.4674 26.5956 32.794 24.633 32.8833C22.5116 32.9804 21.8741 33 16.4995 33C11.1268 33 10.4893 32.9814 8.36794 32.8833Z" fill="url(#paint0_radial_401_3733)"/>
<path d="M8.36794 32.8833C6.40542 32.794 5.33932 32.4674 4.63022 32.1909C3.69064 31.825 3.02077 31.3896 2.3156 30.6854C1.61043 29.9812 1.17398 29.3113 0.810117 28.3717C0.533539 27.6626 0.206943 26.5965 0.117693 24.634C0.0196154 22.5126 0 21.8761 0 16.5015C0 11.1268 0.021577 10.4913 0.116712 8.36794C0.205962 6.40542 0.53452 5.34128 0.809136 4.63022C1.17496 3.69064 1.61141 3.02077 2.31462 2.31462C3.01881 1.61043 3.68868 1.173 4.62924 0.809136C5.33834 0.532559 6.40443 0.205962 8.36696 0.116712C10.4893 0.0196154 11.1268 0 16.4995 0C21.8741 0 22.5097 0.021577 24.633 0.116712C26.5956 0.205962 27.6597 0.53452 28.3708 0.809136C29.3103 1.173 29.9802 1.61043 30.6854 2.31462C31.3906 3.01881 31.825 3.68966 32.1909 4.62924C32.4674 5.33834 32.794 6.40443 32.8833 8.36696C32.9804 10.4903 33 11.1259 33 16.5005C33 21.8732 32.9804 22.5107 32.8833 24.634C32.794 26.5965 32.4655 27.6626 32.1909 28.3717C31.825 29.3113 31.3896 29.9812 30.6854 30.6854C29.9812 31.3896 29.3103 31.825 28.3708 32.1909C27.6617 32.4674 26.5956 32.794 24.633 32.8833C22.5116 32.9804 21.8741 33 16.4995 33C11.1268 33 10.4893 32.9814 8.36794 32.8833Z" fill="url(#paint1_radial_401_3733)"/>
<path d="M12.756 16.3831C12.756 14.3797 14.3797 12.7551 16.3831 12.7551C18.3866 12.7551 20.0111 14.3797 20.0111 16.3831C20.0111 18.3866 18.3866 20.0111 16.3831 20.0111C14.3797 20.0111 12.756 18.3866 12.756 16.3831ZM10.7948 16.3831C10.7948 19.4696 13.2967 21.9715 16.3831 21.9715C19.4696 21.9715 21.9715 19.4696 21.9715 16.3831C21.9715 13.2967 19.4696 10.7948 16.3831 10.7948C13.2967 10.7948 10.7949 13.2965 10.7949 16.3831M20.8868 10.5732C20.8867 10.8315 20.9632 11.084 21.1066 11.2988C21.25 11.5137 21.4539 11.6811 21.6925 11.7801C21.9311 11.879 22.1937 11.905 22.4471 11.8547C22.7004 11.8044 22.9332 11.6801 23.1159 11.4975C23.2986 11.315 23.4231 11.0823 23.4736 10.829C23.5241 10.5757 23.4983 10.3131 23.3996 10.0744C23.3008 9.83575 23.1335 9.63171 22.9188 9.48812C22.7041 9.34454 22.4516 9.26784 22.1933 9.26774H22.1928C21.8466 9.2679 21.5146 9.40547 21.2697 9.65024C21.0248 9.89501 20.8871 10.227 20.8868 10.5732ZM11.9863 25.2418C10.9253 25.1935 10.3486 25.0168 9.9653 24.8674C9.45719 24.6696 9.09465 24.434 8.71348 24.0534C8.33231 23.6727 8.09637 23.3105 7.89942 22.8024C7.75002 22.4193 7.57328 21.8424 7.52504 20.7814C7.47228 19.6342 7.46175 19.2896 7.46175 16.3833C7.46175 13.477 7.47315 13.1333 7.52504 11.9852C7.57337 10.9241 7.75141 10.3484 7.89942 9.96417C8.09724 9.45606 8.33283 9.09352 8.71348 8.71235C9.09413 8.33118 9.45632 8.09523 9.9653 7.89829C10.3484 7.74889 10.9253 7.57215 11.9863 7.52391C13.1335 7.47115 13.4781 7.46062 16.3831 7.46062C19.2881 7.46062 19.6331 7.47185 20.7812 7.52409C21.8423 7.57241 22.418 7.75046 22.8023 7.89847C23.3104 8.09541 23.6729 8.33188 24.0541 8.71252C24.4352 9.09317 24.6703 9.45623 24.8681 9.96434C25.0175 10.3474 25.1943 10.9243 25.2425 11.9854C25.2953 13.1335 25.3058 13.4772 25.3058 16.3835C25.3058 19.2898 25.2953 19.6334 25.2425 20.7816C25.1942 21.8426 25.0166 22.4193 24.8681 22.8026C24.6703 23.3107 24.4347 23.6733 24.0541 24.0536C23.6734 24.4339 23.3104 24.6698 22.8023 24.8676C22.4192 25.017 21.8423 25.1938 20.7812 25.242C19.634 25.2948 19.2894 25.3053 16.3831 25.3053C13.4768 25.3053 13.1332 25.2948 11.9863 25.242M11.8962 5.56591C10.7377 5.61867 9.94597 5.80238 9.25459 6.07141C8.539 6.34923 7.93242 6.72196 7.32671 7.32671C6.721 7.93146 6.34923 8.53813 6.07141 9.25459C5.80238 9.94641 5.61867 10.7377 5.56591 11.8962C5.51228 13.0566 5.5 13.4276 5.5 16.3831C5.5 19.3386 5.51228 19.7096 5.56591 20.87C5.61867 22.0287 5.80238 22.8198 6.07141 23.5117C6.34923 24.2272 6.72109 24.835 7.32671 25.4395C7.93233 26.044 8.53813 26.4162 9.25459 26.6948C9.94728 26.9639 10.7377 27.1476 11.8962 27.2003C13.0572 27.2531 13.4276 27.2662 16.3831 27.2662C19.3386 27.2662 19.7096 27.254 20.87 27.2003C22.0287 27.1476 22.8198 26.9639 23.5117 26.6948C24.2272 26.4162 24.8338 26.0443 25.4395 25.4395C26.0452 24.8348 26.4162 24.2272 26.6948 23.5117C26.9639 22.8198 27.1485 22.0286 27.2003 20.87C27.2531 19.7087 27.2654 19.3386 27.2654 16.3831C27.2654 13.4276 27.2531 13.0566 27.2003 11.8962C27.1476 10.7376 26.9639 9.94597 26.6948 9.25459C26.4162 8.539 26.0443 7.93242 25.4395 7.32671C24.8348 6.721 24.2272 6.34923 23.5125 6.07141C22.8198 5.80238 22.0286 5.6178 20.8709 5.56591C19.7103 5.51289 19.3395 5.5 16.3844 5.5C13.4294 5.5 13.0577 5.51228 11.8967 5.56591" fill="white"/>
<defs>
<radialGradient id="paint0_radial_401_3733" cx="0" cy="0" r="1" gradientUnits="userSpaceOnUse" gradientTransform="translate(2.13573 32.2771) scale(41.8977)">
<stop offset="0.09" stop-color="#FA8F21"/>
<stop offset="0.78" stop-color="#D82D7E"/>
</radialGradient>
<radialGradient id="paint1_radial_401_3733" cx="0" cy="0" r="1" gradientUnits="userSpaceOnUse" gradientTransform="translate(22.8579 31.2174) scale(36.8704)">
<stop offset="0.64" stop-color="#8C3AAA" stop-opacity="0"/>
<stop offset="1" stop-color="#8C3AAA"/>
</radialGradient>
</defs>
</svg>
