<svg id="Layer_1" data-name="Layer 1" xmlns="http://www.w3.org/2000/svg" viewBox="0 0 340 340"><path d="M215.964,153.4l7.278,4.542a67.237,67.237,0,0,1,18.75,17.433c8.778,12.046,22.546,33.618,35.018,64.592a53.479,53.479,0,0,1-1.71,43.771s-15.474,18.119-28.9,9.649-8-25.218-8-25.218a22.824,22.824,0,0,0-.894-22.882c-6-9.472-14.778-21.575-23.956-28.214Z" style="fill:#797996"/><path d="M73.133,289.337s-4.647,6.2-5.092,25.24A16.046,16.046,0,0,0,84.075,331h31.476l6.382-52.991Z" style="fill:#b45f6d"/><rect x="115.551" y="308.071" width="99.837" height="22.932" style="fill:#464659"/><path d="M215.964,153.4l-4.875-3.043a12.721,12.721,0,0,1-6.115-3.818l-9.4-5.87H136.05l-10.076,6.017a12.733,12.733,0,0,1-6.194,3.7l-5.852,3.5A60.771,60.771,0,0,0,88.31,184.4c-7.727,20.246-19.482,53.344-27.8,87.231-6.158,25.1,8.314,37.068,31.621,25.907,7.482-3.583,13.177-9.015,18.195-15.065l.694,18.123,18.832,14.928h61.194L220.6,300.592Z" style="fill:#797996"/><path d="M165.81,138.011l-22.922,25.971a203.057,203.057,0,0,0,12.072,25.285h21.7a202.916,202.916,0,0,0,12.072-25.285Z" style="fill:#cbd5ea"/><path d="M156.584,171.685l-1.622,17.58a199.827,199.827,0,0,0,10.848,17.378,199.827,199.827,0,0,0,10.848-17.378l-2.086-22.607s-5.178-3.446-9.671-2.678S156.584,171.685,156.584,171.685Z" style="fill:#ff6d8d"/><path d="M174.572,166.659l-2.642-28.648H159.69l-3.106,33.674A36.942,36.942,0,0,1,174.572,166.659Z" style="fill:#e5486e"/><path d="M180.972,130.124H150.648l-14.6,10.544a130.235,130.235,0,0,0,6.844,23.312l22.916-16.495,22.916,16.495a130.153,130.153,0,0,0,6.844-23.312Z" style="fill:#fff"/><polygon points="150.648 123.249 150.648 130.124 165.81 147.485 180.972 130.124 180.972 124.597 150.648 123.249" style="fill:#ffd4ca"/><path d="M112.466,183.5s-.319-14.533-4.96-25.2A60.727,60.727,0,0,0,93.7,173.638c1.842,2.832,5.8,10.24,5.8,21.644v29.775a11.2,11.2,0,0,1-3.63,8.324,24.422,24.422,0,0,0-8.156,15.171L76.385,264.383a2.133,2.133,0,0,0,2.629,3.178L91.488,261.8s-2.1,19.483,6.281,32.477a61.021,61.021,0,0,0,12.56-11.808l.009.241,2.128-3.516Z" style="fill:#595975"/><path d="M110.591,289.307l.432,11.285s0,9.429,12.159,13.789a19.56,19.56,0,0,0,5.3,1.083c9.559-9.1,8.679-31.43,8.679-31.43V270l.663-.38a10.117,10.117,0,0,0,5.093-8.782v-7.4l-12.006.913Z" style="fill:#595975"/><path d="M180.972,112.764H150.648v10.485s5.177,5.816,16.664,5.816c0,0,8.306-.577,13.66-4.468Z" style="fill:#f99c9c"/><path d="M99.076,158.422a5.673,5.673,0,0,0-.193,6.892c3.07,4.373,7.993,13.046,7.993,23.689v29.9s4.764,11.96,15.717,7.782V189s-.827-21.836-10.886-34.171a5.672,5.672,0,0,0-7.725-.941A27.616,27.616,0,0,0,99.076,158.422Z" style="fill:#e0898d"/><path d="M204.974,146.538c-4.882,15.1-18.666,53.166-39.557,74.64-18.653-19.186-33.17-53.182-39.443-74.493l-6.194,3.7c6.439,21.052,21.6,57.89,43.238,78.254a3.5,3.5,0,0,0,4.8,0c22.644-21.313,37.589-61.077,43.273-78.282Z" style="fill:#fff"/><path d="M138.366,97.2s-8.624,2.55-13.216-4.167a11.281,11.281,0,0,1-1.855-6.38V69.676h15.071Z" style="fill:#f99c9c"/><path d="M196.354,97.2s8.624,2.55,13.216-4.167a11.28,11.28,0,0,0,1.854-6.38V69.676h-15.07Z" style="fill:#f99c9c"/><path d="M136.739,75.005h-7.488A15.833,15.833,0,0,1,113.427,58.4c.767-15.314,7.742-37.171,38.81-47.395,0,0,23.885-7.811,32.4,7.563,0,0,38.984,0,32.944,40.083S167.312,72.1,167.312,72.1,156.382,87.792,136.739,75.005Z" style="fill:#ffc676"/><path d="M177.942,33.8s-.965,37.621-39.1,42.224l-2.1,5.5v9.372a30.573,30.573,0,0,0,30.573,30.573h0a30.573,30.573,0,0,0,30.573-30.573V68.211S197.447,48.048,177.942,33.8Z" style="fill:#ffd4ca"/><path d="M166.929,110.051c-7.223,0-10.811-3.147-12.306-5.024a3.5,3.5,0,1,1,5.473-4.363c.711.891,2.544,2.387,6.833,2.387,4.5,0,6.86-1.682,7.868-2.685a3.5,3.5,0,0,1,4.937,4.962C177.569,107.483,173.59,110.051,166.929,110.051Z" style="fill:#f99c9c"/><path d="M157.965,89.3a3.5,3.5,0,0,1-3.5-3.5V82.55a3.5,3.5,0,1,1,7,0V85.8A3.5,3.5,0,0,1,157.965,89.3Z" style="fill:#f99c9c"/><path d="M176.755,89.3a3.5,3.5,0,0,1-3.5-3.5V82.55a3.5,3.5,0,0,1,7,0V85.8A3.5,3.5,0,0,1,176.755,89.3Z" style="fill:#f99c9c"/><path d="M136.739,75.005v7.937c46.288-4.614,41.2-49.14,41.2-49.14S174.874,70.4,136.739,75.005Z" style="fill:#f99c9c"/><path d="M275.3,283.734c-5.905,3.89-12.779,6.53-19.743,5.113-13.678-2.782-16.6-14.467-17.169-20.686a22.6,22.6,0,0,1-2.821,4.16,124.857,124.857,0,0,1-18.065,17.21l14.019,34.3a124.353,124.353,0,0,0,36.475-29.111A52.858,52.858,0,0,0,275.3,283.734Z" style="fill:#595975"/><path d="M191.049,295.9V315.52h11.185a17.453,17.453,0,0,0,6.241-1.153h0l1.738-30.834h-6.8A12.365,12.365,0,0,0,191.049,295.9Z" style="fill:#595975"/><path d="M223.777,331H210.568a8.9,8.9,0,0,1-8.905-8.9V292.082a8.55,8.55,0,0,1,8.55-8.549h13.564a10.986,10.986,0,0,1,10.986,10.986v25.5A10.986,10.986,0,0,1,223.777,331Z" style="fill:#ffd4ca"/><path d="M122.593,226.682c-9.2-.413-13.768-4.975-15.717-7.782v27.648h15.717Z" style="fill:#b45f6d"/><path d="M125.91,242.036h8.643a8.365,8.365,0,0,1,8.365,8.365v3.035a8.364,8.364,0,0,1-8.365,8.364H125.91Z" style="fill:#f99c9c"/><path d="M108.8,284.034h13.209a8.9,8.9,0,0,0,8.905-8.906V245.113a8.55,8.55,0,0,0-8.55-8.55H108.8A10.987,10.987,0,0,0,97.811,247.55v25.5A10.987,10.987,0,0,0,108.8,284.034Z" style="fill:#ffd4ca"/><path d="M63.126,300.943a18.376,18.376,0,0,0,2.381,1.622,98.523,98.523,0,0,0-.965,11.93A19.546,19.546,0,0,0,84.075,334.5h139.7a14.506,14.506,0,0,0,13.767-10,128.189,128.189,0,0,0,33.1-27.494,56.6,56.6,0,0,0,9.617-58.35c-12.433-30.879-26.133-52.579-35.436-65.346A70.436,70.436,0,0,0,225.1,154.972a187.924,187.924,0,0,1-40.623-26.637v-8.022A34.237,34.237,0,0,0,199.8,101.159c.11,0,.214.007.327.007A14.346,14.346,0,0,0,212.459,95a14.7,14.7,0,0,0,2.465-8.355V75.189c2.815-3.716,5.039-8.881,6.114-16.019,1.981-13.144-.392-23.732-7.052-31.471-8.765-10.185-22.253-12.16-27.341-12.542C176.183-.286,152.2,7.333,151.143,7.678c-34.22,11.261-40.508,36.5-41.212,50.545a19.129,19.129,0,0,0,5.3,14.267,19.428,19.428,0,0,0,4.568,3.559v10.6A14.715,14.715,0,0,0,122.26,95a14.362,14.362,0,0,0,12.27,6.172c.1,0,.2-.009.294-.011a34.216,34.216,0,0,0,12.324,17.174v10a158.523,158.523,0,0,1-34.813,22.419,9.174,9.174,0,0,0-10.422.314,30.925,30.925,0,0,0-5.521,5.106,9.116,9.116,0,0,0-1.293,9.5A64.1,64.1,0,0,0,85.04,183.149c-8.2,21.492-19.706,54.144-27.926,87.644C53.781,284.375,55.916,295.083,63.126,300.943Zm48.925,26.56H84.075A12.546,12.546,0,0,1,71.54,314.659a95.087,95.087,0,0,1,.7-9.726,24.39,24.39,0,0,0,3.925.316c5.225,0,11.14-1.52,17.485-4.558a50.583,50.583,0,0,0,13.511-9.6l.368,9.612a17.438,17.438,0,0,0,4.526,10.551Zm-10.74-54.455v-25.5a7.5,7.5,0,0,1,7.487-7.487h13.564a5.055,5.055,0,0,1,5.05,5.05v30.016a5.412,5.412,0,0,1-5.405,5.4H108.8A7.5,7.5,0,0,1,101.311,273.048Zm17.74,54.455V316.432A29.351,29.351,0,0,0,122,317.675a23.2,23.2,0,0,0,7.855,1.346h68.308V322.1a12.3,12.3,0,0,0,1.257,5.4Zm112.212-7.486a7.494,7.494,0,0,1-7.486,7.486H210.568a5.412,5.412,0,0,1-5.405-5.4V292.082a5.055,5.055,0,0,1,5.05-5.049h13.564a7.494,7.494,0,0,1,7.486,7.486Zm-9.393-90.228a148.163,148.163,0,0,1,12.676,17.37,19.42,19.42,0,0,1-1.639,22.882,123.933,123.933,0,0,1-9.461,9.812Zm-30.167-87.6a124.286,124.286,0,0,1-4.653,16.268L170.976,146.89l10.533-12.06Zm-7.24,23.031q-2.409,5.9-5.4,11.974l-1.568-16.992ZM165.81,151.8l4.152,2.989,3.11,33.711c-2.838,5-5.419,9.1-7.262,11.914-1.842-2.812-4.424-6.915-7.262-11.914l3.11-33.711Zm-11.662-22.986V122.32a34.091,34.091,0,0,0,23.324,1.1v5.391L165.81,142.164Zm53.776-42.162a7.751,7.751,0,0,1-1.244,4.4,7.188,7.188,0,0,1-5.451,3.067c.1-1.063.157-2.138.157-3.226V83.656a23.667,23.667,0,0,0,6.539-2.382Zm-79.885,4.4a7.751,7.751,0,0,1-1.244-4.4V78.335c.809.1,6.444.17,6.444.17V90.894c0,1.087.057,2.161.157,3.223A7.1,7.1,0,0,1,128.039,91.053Zm1.212-19.548a12.332,12.332,0,0,1-12.328-12.933c.749-14.964,7.673-34.789,36.4-44.241.211-.069,21.252-6.711,28.25,5.93a3.511,3.511,0,0,0,3.055,1.8c.154,0,15.467.179,24.085,10.235,5.247,6.122,7.065,14.811,5.405,25.826-1.538,10.21-5.72,16.232-12.731,18.311v-8.3c-.02-.893-.713-22.065-21.379-37.158a3.5,3.5,0,0,0-5.552,2.527c-.121,1.377-3.371,33.72-37.965,38Zm10.988,19.389V78.031c28.195-4.829,37.247-26.9,40.026-37.8,13.511,12.462,14.1,27.372,14.121,27.981V90.894a27.074,27.074,0,0,1-54.147,0Zm9.872,43.936,10.533,12.06L144.57,158.461a124.286,124.286,0,0,1-4.653-16.268Zm4.017,25.376L152.561,177.2q-2.987-6.063-5.4-11.974Zm-29.1-8.878,8.613-5.144a141.052,141.052,0,0,0,5.968,19c.008.024.01.048.02.072a205.252,205.252,0,0,0,12.28,25.727c.01.016.021.03.031.046a201.782,201.782,0,0,0,11.034,17.666,3.5,3.5,0,0,0,5.677,0,201.934,201.934,0,0,0,11.033-17.666c.01-.016.022-.03.031-.046a205.252,205.252,0,0,0,12.28-25.727c.01-.024.012-.048.021-.072a141.234,141.234,0,0,0,5.944-18.9l7.826,4.885h0l15.6,9.74a63.454,63.454,0,0,1,17.775,16.524c9.07,12.447,22.435,33.626,34.6,63.838a49.621,49.621,0,0,1-8.423,51.162A122.017,122.017,0,0,1,238.263,315.9V294.519A14.475,14.475,0,0,0,231.2,282.1c2.475-2.453,4.832-4.96,7.015-7.5a26.138,26.138,0,0,0,2.242-31.189c-6.472-10.212-12.834-18.333-18.921-24.162l-.619-19.691a3.5,3.5,0,1,0-7,.22l2.525,80.254h-6.235a12.063,12.063,0,0,0-12.05,12.049v19.939H129.855a16.236,16.236,0,0,1-5.491-.934c-9.522-3.415-9.832-10.255-9.841-10.5,0-.045,0-.089,0-.134l-.5-12.924h7.981a12.419,12.419,0,0,0,12.405-12.4V265.3h.141a11.878,11.878,0,0,0,11.865-11.864V250.4a11.879,11.879,0,0,0-11.865-11.865h-2.107a12.094,12.094,0,0,0-6.353-4.874V189c0-.044,0-.088,0-.132-.033-.859-.843-19.517-9.15-32.715ZM134.412,258.3V245.536h.141a4.87,4.87,0,0,1,4.865,4.865v3.035a4.87,4.87,0,0,1-4.865,4.864Zm-32.653-97.631a23.986,23.986,0,0,1,4.291-3.954,2.176,2.176,0,0,1,2.944.329c8.95,10.974,10.042,30.84,10.1,32.036v43.983h-8.717V189c0-11.664-5.406-21.108-8.628-25.7A2.17,2.17,0,0,1,101.759,160.669ZM63.912,272.461c8.135-33.151,19.536-65.509,27.668-86.816a57.152,57.152,0,0,1,7.369-13.507A36.7,36.7,0,0,1,103.376,189v45.123a14.544,14.544,0,0,0-8.219,8.592l-17.6,14.91a3.467,3.467,0,0,0-.407,4.933c1.5,1.682,4.275.965,4.933.408L94.311,252.61v20.438A14.49,14.49,0,0,0,102.35,286a43.864,43.864,0,0,1-11.727,8.376c-9.787,4.687-18.2,5.1-23.082,1.133C62.621,291.512,61.3,283.111,63.912,272.461Z" style="fill:#3c3c4f"/></svg>