<?xml version="1.0" encoding="utf-8"?>
<!-- Generator: Adobe Illustrator 21.0.0, SVG Export Plug-In . SVG Version: 6.00 Build 0)  -->
<svg version="1.1" id="Layer_1" xmlns="http://www.w3.org/2000/svg" xmlns:xlink="http://www.w3.org/1999/xlink" x="0px" y="0px"
	 viewBox="0 0 256 256" style="enable-background:new 0 0 256 256;" xml:space="preserve">
<style type="text/css">
	.st0{fill:#FFE5A4;}
	.st1{fill:#FFCD29;}
	.st2{fill:#EA4647;}
	.st3{fill:#FCACB6;}
	.st4{fill:#55ACD5;}
	.st5{fill:#6DCC6D;}
	.st6{fill:#231F20;}
</style>
<g id="Layer_28">
	<path class="st0" d="M102.1,84.7c-24,0.2-39.3,0.2-52.2,0.2l-4.8,4.6c-0.1,0.1-0.2,0.3-0.2,0.5l2.3,13.4c0.1,0.3-0.1,0.6-0.4,0.6
		c-0.1,0-0.2,0-0.4-0.1l-12-6.3c-0.2-0.1-0.4-0.1-0.5,0L21.8,104c-0.3,0.1-0.6,0-0.7-0.2c-0.1-0.1-0.1-0.2-0.1-0.4L23.3,90
		c0-0.2,0-0.4-0.2-0.5L18.6,85C9.2,86.8,2.4,95.1,2.5,104.7c0.3,76.1,0,87.6,0,89v0c0,0,0,0,0,0v0c0,0,0,0,0,0s0,0,0,0s0,0,0,0v0
		c0,10.8,9.3,19.5,20,19.5l20.7-0.1c2.4,0,4.7,1.2,6,3.2L61,234c0.6,0.9,1.9,1.2,2.8,0.6c0.2-0.2,0.4-0.3,0.6-0.6L76,216.2
		c1.3-2,3.6-3.2,6-3.2l20.7-0.1c10.6-0.1,19.2-8.8,19.1-19.5c0,0,0-0.1,0-0.1v-89.1C121.6,93.4,112.8,84.7,102.1,84.7z"/>
	<path class="st1" d="M54.8,80c0.2-0.2,0.2-0.6,0-0.8c-0.1-0.1-0.2-0.1-0.3-0.2l-13.5-2c-0.2,0-0.3-0.1-0.4-0.3l-6-12.2
		c-0.1-0.3-0.5-0.4-0.7-0.3c-0.1,0.1-0.2,0.1-0.3,0.3l-6,12.2c-0.1,0.2-0.2,0.3-0.4,0.3l-13.5,2c-0.3,0-0.5,0.3-0.5,0.6
		c0,0.1,0.1,0.2,0.2,0.3l9.7,9.5c0.1,0.1,0.2,0.3,0.2,0.5L21,103.4c-0.1,0.3,0.1,0.6,0.4,0.6c0.1,0,0.2,0,0.4-0.1l12.1-6.3
		c0.2-0.1,0.4-0.1,0.5,0l12,6.3c0.3,0.1,0.6,0,0.7-0.2c0.1-0.1,0.1-0.2,0.1-0.4L44.9,90c0-0.2,0-0.4,0.2-0.5L54.8,80z"/>
	<path class="st2" d="M183.1,28.6c-4.9-4.8-12.8-4.8-17.6,0.1c-0.3,0.3-0.7,0.3-1,0c-4.9-4.9-12.7-4.9-17.6,0s-4.9,12.7,0,17.6
		c0,0,0.1,0.1,0.1,0.1l15.6,15.5l0,0c1.4,1.4,3.6,1.4,5,0l0,0l15.5-15.6C188.1,41.4,188,33.5,183.1,28.6z"/>
	<path class="st3" d="M233.5,43.3c-21.5,0.2-36.1,0.2-48.2,0.2c-0.6,1-1.3,2-2.1,2.8l-15.5,15.6l0,0c-1.4,1.4-3.6,1.4-5,0l0,0
		L147,46.4c-0.5-0.5-0.9-1-1.3-1.5c-7.2,3.2-11.9,10.4-11.8,18.3c0.3,76.1,0,87.6,0,89v0c0,0,0,0,0,0v0c0,0,0,0,0,0s0,0,0,0s0,0,0,0
		v0c0,10.8,9.3,19.5,20,19.5l20.7-0.1c2.4,0,4.7,1.2,6,3.2l11.8,17.6c0.6,0.9,1.9,1.2,2.8,0.6c0.2-0.2,0.4-0.3,0.6-0.6l11.6-17.7
		c1.3-2,3.6-3.2,6-3.2l20.7-0.1c10.8-0.1,19.5-8.9,19.5-19.6V62.7C253.5,52,244.2,43.2,233.5,43.3z"/>
	<path class="st1" d="M62.6,44.5h-1.8v-1.8c0-1.4-1.1-2.5-2.5-2.5s-2.5,1.1-2.5,2.5v1.8h-1.8c-1.4,0-2.5,1.1-2.5,2.5
		s1.1,2.5,2.5,2.5h1.8v1.8c0,1.4,1.1,2.5,2.5,2.5s2.5-1.1,2.5-2.5v-1.8h1.8c1.4,0,2.5-1.1,2.5-2.5S63.9,44.5,62.6,44.5L62.6,44.5z"
		/>
	<path class="st4" d="M190,217.9c-0.1-0.3-0.2-0.6-0.4-0.9c-0.1-0.1-0.2-0.3-0.3-0.4c-1-0.9-2.5-0.9-3.5,0c-0.1,0.1-0.2,0.2-0.3,0.4
		c-0.1,0.1-0.2,0.3-0.2,0.4c-0.1,0.2-0.1,0.3-0.1,0.5c-0.1,0.3-0.1,0.7,0,1c0,0.2,0.1,0.3,0.1,0.5c0.1,0.1,0.1,0.3,0.2,0.4
		c0.1,0.1,0.2,0.3,0.3,0.4c1,1,2.5,1,3.5,0c0,0,0,0,0,0c0.1-0.1,0.2-0.2,0.3-0.4c0.1-0.1,0.2-0.3,0.2-0.4c0.1-0.1,0.1-0.3,0.1-0.5
		C190.1,218.5,190.1,218.2,190,217.9z"/>
	<path class="st5" d="M198.8,21.5c-0.1-0.3-0.2-0.6-0.4-0.9c-0.1-0.1-0.2-0.3-0.3-0.4c-1-0.9-2.5-0.9-3.5,0
		c-0.1,0.1-0.2,0.2-0.3,0.4c-0.1,0.1-0.2,0.3-0.2,0.4c-0.1,0.2-0.1,0.3-0.1,0.5c-0.1,0.3-0.1,0.7,0,1c0,0.2,0.1,0.3,0.1,0.5
		c0.1,0.1,0.1,0.3,0.2,0.4c0.1,0.1,0.2,0.3,0.3,0.4c1,1,2.5,1,3.5,0c0,0,0,0,0,0c0.1-0.1,0.2-0.2,0.3-0.4c0.1-0.1,0.2-0.3,0.2-0.4
		c0.1-0.1,0.1-0.3,0.1-0.5C198.9,22.2,198.9,21.9,198.8,21.5z"/>
	<path class="st2" d="M35.3,30.8c-0.1-0.3-0.2-0.6-0.4-0.9c-0.1-0.1-0.2-0.3-0.3-0.4c-1-0.9-2.5-0.9-3.5,0c-0.1,0.1-0.2,0.2-0.3,0.4
		c-0.1,0.1-0.2,0.3-0.2,0.4c-0.1,0.2-0.1,0.3-0.1,0.5c-0.1,0.3-0.1,0.7,0,1c0,0.2,0.1,0.3,0.1,0.5c0.1,0.1,0.1,0.3,0.2,0.4
		c0.1,0.1,0.2,0.3,0.3,0.4c1,1,2.5,1,3.5,0c0,0,0,0,0,0c0.1-0.1,0.2-0.2,0.3-0.4c0.1-0.1,0.2-0.3,0.2-0.4c0.1-0.1,0.1-0.3,0.1-0.5
		C35.3,31.4,35.3,31.1,35.3,30.8z"/>
	<path class="st5" d="M173.3,200.3c-4.1-0.8-7.2-4-8-8c0-0.1-0.1-0.2-0.2-0.2c-0.1,0-0.1,0.1-0.2,0.2c-0.8,4.1-4,7.2-8,8
		c-0.1,0-0.2,0.1-0.2,0.2c0,0.1,0.1,0.1,0.2,0.2c4.1,0.8,7.2,4,8,8c0,0.1,0.1,0.2,0.2,0.2c0.1,0,0.1-0.1,0.2-0.2c0.8-4.1,4-7.2,8-8
		c0.1,0,0.2-0.1,0.2-0.2C173.5,200.4,173.4,200.3,173.3,200.3z"/>
	<path class="st6" d="M193.6,84.9l-37.2,0.2c-1.4,0-2.5,1.1-2.5,2.5c0,1.4,1.1,2.5,2.5,2.5h0l37.2-0.2c1.4,0,2.5-1.1,2.5-2.5
		S195,84.9,193.6,84.9L193.6,84.9z"/>
	<path class="st6" d="M230.8,98L230.8,98l-74.3,0.3c-1.4,0-2.5,1.1-2.5,2.5c0,1.4,1.1,2.5,2.5,2.5h0l74.3-0.3c1.4,0,2.5-1.1,2.5-2.5
		C233.3,99.1,232.2,98,230.8,98z"/>
	<path class="st6" d="M230.9,111.2L230.9,111.2l-74.3,0.3c-1.4,0-2.5,1.1-2.5,2.5c0,1.4,1.1,2.5,2.5,2.5h0l74.3-0.3
		c1.4,0,2.5-1.1,2.5-2.5C233.4,112.3,232.3,111.2,230.9,111.2z"/>
	<path class="st6" d="M230.9,124.4L230.9,124.4l-74.3,0.3c-1.4,0-2.5,1.1-2.5,2.5c0,1.4,1.1,2.5,2.5,2.5h0l74.3-0.3
		c1.4,0,2.5-1.1,2.5-2.5C233.4,125.5,232.3,124.4,230.9,124.4L230.9,124.4z"/>
	<path class="st6" d="M231,137.6l-74.3,0.3c-1.4,0-2.5,1.1-2.5,2.5c0,1.4,1.1,2.5,2.5,2.5h0l74.3-0.3c1.4,0,2.5-1.1,2.5-2.5
		c0,0,0,0,0,0C233.5,138.7,232.4,137.6,231,137.6z"/>
	<path class="st6" d="M62.1,126.3H25c-1.4,0-2.5,1.1-2.5,2.5c0,1.4,1.1,2.5,2.5,2.5h37.1c1.4,0,2.5-1.1,2.5-2.5
		C64.6,127.4,63.5,126.3,62.1,126.3z"/>
	<path class="st6" d="M99.3,139.5H25c-1.4,0-2.5,1.1-2.5,2.5s1.1,2.5,2.5,2.5h74.3c1.4,0,2.5-1.1,2.5-2.5S100.6,139.5,99.3,139.5z"
		/>
	<path class="st6" d="M99.3,152.8H25c-1.4,0-2.5,1.1-2.5,2.5s1.1,2.5,2.5,2.5h74.3c1.4,0,2.5-1.1,2.5-2.5S100.6,152.8,99.3,152.8z"
		/>
	<path class="st6" d="M99.3,166H25c-1.4,0-2.5,1.1-2.5,2.5s1.1,2.5,2.5,2.5h74.3c1.4,0,2.5-1.1,2.5-2.5S100.6,166,99.3,166z"/>
	<path class="st6" d="M99.3,179.2H25c-1.4,0-2.5,1.1-2.5,2.5s1.1,2.5,2.5,2.5h74.3c1.4,0,2.5-1.1,2.5-2.5S100.6,179.2,99.3,179.2z"
		/>
	<path class="st6" d="M184.9,26.9c-2.8-2.8-6.6-4.3-10.5-4.3h-0.1c-3.4,0-6.6,1.2-9.3,3.3c-6-4.7-14.5-4.2-19.9,1.2l0,0
		c-5.8,5.9-5.8,15.3,0.1,21.1l15.7,15.5c1.1,1.1,2.7,1.7,4.2,1.7c1.6,0,3.2-0.6,4.3-1.8L185,48C190.8,42.1,190.8,32.7,184.9,26.9
		L184.9,26.9z M181.4,44.5L166,60.1l-0.1,0.1c-0.4,0.4-1.1,0.4-1.5,0l-15.6-15.5c-3.9-3.9-3.9-10.2-0.1-14.1l0,0
		c3.9-3.9,10.2-3.9,14.1-0.1c1.3,1.2,3.3,1.2,4.5,0c1.9-1.9,4.4-2.9,7-2.9h0c5.5,0,9.9,4.5,9.9,10C184.3,40.1,183.3,42.6,181.4,44.5
		L181.4,44.5z"/>
	<path class="st6" d="M233.6,40.8h-0.1c-18.9,0.2-34.2,0.2-48.1,0.2h0c-0.9,0-1.8,0.5-2.2,1.3c-0.4,0.8-1,1.6-1.7,2.3l-15.5,15.7
		c-0.4,0.4-1.1,0.4-1.5,0l-15.6-15.5c-0.4-0.4-0.7-0.8-1-1.2c-0.7-0.9-2-1.3-3-0.8c-8.2,3.6-13.4,11.7-13.3,20.6
		c0.1,30.6,0.2,70.7,0,87.9c0,0.6,0,0.9,0,1.1v0.1c0.1,11.9,10.3,22,22.4,22h0.1l20.7-0.1c1.6,0,3,0.8,3.9,2.1l11.7,17.6
		c0.8,1.3,2.3,2,3.8,2h0c1.5,0,2.9-0.8,3.8-2.1l11.6-17.7c0.9-1.3,2.3-2.1,3.9-2.1L234,174c12.2-0.1,22-10,22-22.1V62.7
		C255.9,50.8,245.7,40.8,233.6,40.8z M251,151.9c0,9.4-7.6,17.1-17,17.1l-20.7,0.1c-3.2,0-6.3,1.7-8,4.4l-11.2,17.1l-11.4-17.1
		c-1.8-2.7-4.8-4.3-8-4.3h0l-20.7,0.1h-0.1c-9.4,0-17.4-7.8-17.4-17v-0.1c0-0.2,0-0.4,0-1c0.2-17.3,0.1-57.4,0-88
		c0-6.3,3.3-12.1,8.7-15.2l0.2,0.2l15.7,15.5c2.4,2.3,6.2,2.3,8.6-0.1L185,48c0.6-0.6,1.2-1.3,1.7-2.1c13.6,0,28.5,0,46.8-0.2h0.1
		c9.4,0,17.4,7.8,17.4,17V151.9z"/>
	<path class="st6" d="M57.3,78.6c-0.4-1.1-1.3-1.9-2.5-2.1l-12.5-1.8l-5.6-11.3c-0.7-1.5-2.6-2.1-4.1-1.4c-0.6,0.3-1.1,0.8-1.4,1.4
		l-5.6,11.3l-12.5,1.8c-1.7,0.2-2.8,1.8-2.6,3.5c0.1,0.7,0.4,1.3,0.9,1.7l9,8.8l-2.1,12.4c-0.3,1.7,0.8,3.2,2.5,3.5
		c0.7,0.1,1.3,0,1.9-0.3l11.1-5.9l11.1,5.9c1.5,0.8,3.3,0.2,4.1-1.3c0.3-0.6,0.4-1.3,0.3-1.9l-2.1-12.4l9-8.8
		C57.4,81,57.7,79.7,57.3,78.6z M43.3,87.7c-0.7,0.7-1,1.7-0.9,2.7l1.6,9.5l-8.6-4.5c-0.9-0.5-2-0.5-2.8,0l-8.6,4.5l1.6-9.5
		c0.2-1-0.2-2-0.9-2.7L18,80.9l9.6-1.4c1-0.1,1.9-0.8,2.3-1.7l4.3-8.7l4.3,8.7c0.4,0.9,1.3,1.5,2.3,1.7l9.6,1.4L43.3,87.7z"/>
	<path class="st6" d="M117.7,88.6c-4.1-4.1-9.7-6.4-15.5-6.4H102c-26.6,0.2-41.9,0.2-52.2,0.2h0c-0.7,0-1.3,0.3-1.7,0.7l-4.8,4.6
		c-0.7,0.7-1,1.7-0.9,2.7l1.6,9.5l-8.6-4.5c-0.9-0.5-2-0.5-2.8,0l-8.6,4.5l1.6-9.5c0.2-1-0.2-2-0.9-2.7l-4.6-4.5
		c-0.6-0.6-1.4-0.8-2.2-0.7C7.5,84.6-0.1,93.9,0,104.7c0.1,30.6,0.2,70.7,0,87.9c0,0.6,0,0.9,0,1.1v0c0,0,0,0.1,0,0.1
		c0.1,11.9,10.3,22,22.4,22h0.1l20.7-0.1h0c1.6,0,3,0.8,3.9,2.1l11.7,17.6c0.8,1.3,2.3,2,3.8,2h0c1.5,0,2.9-0.8,3.8-2.1l11.6-17.7
		c0.9-1.3,2.3-2.1,3.9-2.1l20.7-0.1c12.1-0.2,21.7-10.1,21.6-22.1v-89.1C124.2,98.3,121.8,92.7,117.7,88.6z M119.2,193.3
		c0.1,9.3-7.3,17-16.6,17.1l-20.7,0.1c-3.2,0-6.3,1.7-8,4.4L62.7,232l-11.4-17c-1.8-2.7-4.8-4.3-8-4.3h0l-20.7,0.1h-0.1
		C13,210.8,5,203,5,193.7v-0.1c0-0.2,0-0.4,0-1c0.2-17.3,0.1-57.4,0-88c-0.1-7.9,5.2-14.8,12.8-16.9l2.9,2.8l-2.1,12.4
		c-0.3,1.7,0.8,3.2,2.5,3.5c0.7,0.1,1.3,0,1.9-0.3l11.1-5.9l11.1,5.9c1.5,0.8,3.3,0.2,4.1-1.3c0.3-0.6,0.4-1.3,0.3-1.9l-2.1-12.4
		l3.3-3.2c10.3,0,25.4,0,51.2-0.2h0.1c9.4,0,17,7.6,17.1,17L119.2,193.3z"/>
</g>
</svg>
