<?xml version="1.0" encoding="UTF-8"?>
<!DOCTYPE svg PUBLIC "-//W3C//DTD SVG 1.1//EN" "http://www.w3.org/Graphics/SVG/1.1/DTD/svg11.dtd">
<!-- Creator: CorelDRAW -->
<svg xmlns="http://www.w3.org/2000/svg" xml:space="preserve" width="2048px" height="2048px" style="shape-rendering:geometricPrecision; text-rendering:geometricPrecision; image-rendering:optimizeQuality; fill-rule:evenodd; clip-rule:evenodd"
viewBox="0 0 2048 2048"
 xmlns:xlink="http://www.w3.org/1999/xlink">
 <defs>
  <style type="text/css">
   <![CDATA[
    .fil0 {fill:none}
    .fil1 {fill:#00796B;fill-rule:nonzero}
    .fil3 {fill:#E53935;fill-rule:nonzero}
    .fil2 {fill:#EF5350;fill-rule:nonzero}
    .fil5 {fill:#F9A825;fill-rule:nonzero}
    .fil4 {fill:#FBC02D;fill-rule:nonzero}
   ]]>
  </style>
 </defs>
 <g id="Layer_x0020_1">
  <metadata id="CorelCorpID_0Corel-Layer"/>
  <rect class="fil0" width="2048" height="2048"/>
  <rect class="fil0" x="255.999" y="255.999" width="1536" height="1536"/>
  <rect class="fil0" x="256.001" y="256.001" width="1536" height="1536"/>
  <rect class="fil0" x="256.001" y="256.001" width="1536" height="1536"/>
  <g id="_347540600">
   <path id="_347542640" class="fil1" d="M1535.5 942.256c-19.5721,-123.386 -84.2469,-232.264 -176.356,-310.122 -91.1906,-77.0776 -209.345,-123.639 -337.298,-123.639 -127.553,0 -244.201,46.252 -334.05,122.87 -91.3465,77.8902 -155.167,187.073 -174.806,310.891l-67.2957 -10.6843c22.2532,-140.291 94.4528,-263.91 197.776,-352.014 101.96,-86.9469 234.105,-139.432 378.376,-139.432 144.561,0 278.155,52.6914 381.368,139.929 104.18,88.0583 177.37,211.464 199.585,351.516l-67.2981 10.6843z"/>
   <g>
    <g>
     <path id="_347542496" class="fil2" d="M1024.24 1219.34c-66.1489,-0.0212599 -127.967,-26.4709 -173.85,-74.7095l-5.5252 -5.7 -6.87756 3.99095c-97.1894,56.1485 -161.004,154.158 -179.565,276.48l-0.863386 4.50591 2.9941 3.52559c97.0123,116.44 226.154,180.418 363.688,180.443l0 -388.536z"/>
     <path id="_347542280" class="fil3" d="M1210.48 1142.92l-6.91182 -3.99095 -5.49331 5.7c-45.8327,48.1512 -107.467,74.589 -173.319,74.7071l-0.438189 0.00236221 -0.0826772 0 0 388.536 0.0826772 0.0011811 0.0708662 0c137.371,-0.022441 266.527,-64.0004 363.492,-180.444l3.05315 -3.52559 -0.871654 -4.50591c-18.6106,-122.322 -82.4351,-220.331 -179.582,-276.48z"/>
    </g>
    <path id="_347542160" class="fil3" d="M1024.24 1170.23l0.568111 -0.00826772c120.012,-0.357874 217.671,-98.2135 217.671,-218.297 0,-119.922 -97.3052,-217.743 -217.258,-218.326 -0.328347,-0.0011811 -0.65315,-0.011811 -0.981497,-0.011811l0 436.643z"/>
    <path id="_347541944" class="fil2" d="M1024.15 1170.23l0.0921261 -0.0011811 0 -436.643 -0.0921261 -0.0011811c-120.312,0 -218.147,98.0587 -218.147,218.339 0,120.304 97.8355,218.307 218.147,218.307z"/>
   </g>
   <g>
    <g>
     <path id="_347541824" class="fil4" d="M479.312 1144.56c-40.2839,-0.0141732 -77.9327,-16.1221 -105.875,-45.4996l-3.36496 -3.47126 -4.18937 2.43071c-59.1886,34.1953 -98.0528,93.8835 -109.357,168.379l-0.525591 2.7437 1.82362 2.14725c59.0811,70.9134 137.73,109.876 221.489,109.892l0 -236.622z"/>
     <path id="_347541608" class="fil5" d="M592.737 1098.02l-4.20945 -2.43071 -3.34488 3.47126c-27.913,29.3244 -65.4485,45.4252 -105.553,45.4973l-0.266929 0.00236221 -0.0507874 0 0 236.622 0.0507874 0 0.0437008 0c83.6599,-0.0129921 162.317,-38.9764 221.369,-109.892l1.86024 -2.14725 -0.531496 -2.7437c-11.3339,-74.4957 -50.204,-134.184 -109.368,-168.379z"/>
    </g>
    <path id="_347541488" class="fil5" d="M479.312 1114.66l0.347244 -0.00472441c73.0879,-0.218504 132.563,-59.8134 132.563,-132.946 0,-73.0335 -59.2595,-132.607 -132.313,-132.962 -0.199606,-0.0011811 -0.396851,-0.00826772 -0.597638,-0.00826772l0 265.921z"/>
    <path id="_347541272" class="fil4" d="M479.256 1114.66l0.0555119 -0.0011811 0 -265.921 -0.0555119 0c-73.2709,0 -132.854,59.7189 -132.854,132.97 0,73.2674 59.5831,132.952 132.854,132.952z"/>
   </g>
   <g>
    <g>
     <path id="_347541152" class="fil4" d="M1568.68 1144.56c-40.2851,-0.0141732 -77.9327,-16.1221 -105.876,-45.4996l-3.36496 -3.47126 -4.18937 2.43071c-59.1886,34.1953 -98.0528,93.8835 -109.357,168.379l-0.525591 2.7437 1.82362 2.14725c59.0811,70.9134 137.73,109.876 221.49,109.892l0 -236.622z"/>
     <path id="_347540936" class="fil5" d="M1682.1 1098.02l-4.20945 -2.43071 -3.34607 3.47126c-27.9118,29.3244 -65.4485,45.4252 -105.553,45.4973l-0.266929 0.00236221 -0.0496063 0 0 236.622 0.0496063 0 0.0437008 0c83.6599,-0.0129921 162.318,-38.9764 221.369,-109.892l1.86024 -2.14725 -0.531496 -2.7437c-11.3339,-74.4957 -50.204,-134.184 -109.367,-168.379z"/>
    </g>
    <path id="_347540816" class="fil5" d="M1568.68 1114.66l0.346063 -0.00472441c73.0879,-0.218504 132.563,-59.8134 132.563,-132.946 0,-73.0335 -59.2595,-132.607 -132.312,-132.962 -0.199606,-0.0011811 -0.398032,-0.00826772 -0.597638,-0.00826772l0 265.921z"/>
    <path id="_347540696" class="fil4" d="M1568.62 1114.66l0.056693 -0.0011811 0 -265.921 -0.056693 0c-73.2709,0 -132.854,59.7189 -132.854,132.97 0,73.2674 59.5831,132.952 132.854,132.952z"/>
   </g>
  </g>
 </g>
</svg>
